<?xml version="1.0" encoding="UTF-8"?>
<!DOCTYPE svg PUBLIC "-//W3C//DTD SVG 1.1//EN" "http://www.w3.org/Graphics/SVG/1.1/DTD/svg11.dtd">
<svg xmlns="http://www.w3.org/2000/svg" version="1.1" width="512px" height="512px" style="shape-rendering:geometricPrecision; text-rendering:geometricPrecision; image-rendering:optimizeQuality; fill-rule:evenodd; clip-rule:evenodd" xmlns:xlink="http://www.w3.org/1999/xlink">
<g><path style="opacity:0.964" fill="#000000" d="M 187.5,15.5 C 263.676,10.6791 323.842,39.0124 368,100.5C 403.733,158.27 409.4,218.936 385,282.5C 377.191,300.128 367.358,316.462 355.5,331.5C 401.153,377.653 446.986,423.653 493,469.5C 497.236,478.222 496.069,486.055 489.5,493C 482.833,496.333 476.167,496.333 469.5,493C 423.653,446.986 377.653,401.153 331.5,355.5C 272.691,400.912 208.024,411.412 137.5,387C 67.2348,356.688 26.7348,303.522 16,227.5C 10.9209,143.81 44.0876,80.643 115.5,38C 138.329,26.3323 162.329,18.8323 187.5,15.5 Z M 206.5,47.5 C 274.99,50.8808 324.157,83.2142 354,144.5C 377.829,207.335 368.162,264.335 325,315.5C 274.885,364.986 216.385,378.486 149.5,356C 98.3893,334.218 65.8893,296.385 52,242.5C 40.5933,182.628 56.7599,131.462 100.5,89C 130.962,62.6802 166.295,48.8468 206.5,47.5 Z"/></g>
<g><path style="opacity:0.989" fill="#000000" d="M 177.5,119.5 C 187.36,117.35 194.527,120.683 199,129.5C 199.667,173.5 199.667,217.5 199,261.5C 196.193,268.487 191.027,271.82 183.5,271.5C 175.973,271.82 170.807,268.487 168,261.5C 167.333,217.5 167.333,173.5 168,129.5C 170.022,124.98 173.189,121.647 177.5,119.5 Z"/></g>
<g><path style="opacity:0.989" fill="#000000" d="M 273.5,119.5 C 283.36,117.35 290.527,120.683 295,129.5C 295.667,173.5 295.667,217.5 295,261.5C 292.193,268.487 287.027,271.82 279.5,271.5C 271.973,271.82 266.807,268.487 264,261.5C 263.333,217.5 263.333,173.5 264,129.5C 266.022,124.98 269.189,121.647 273.5,119.5 Z"/></g>
<g><path style="opacity:0.985" fill="#000000" d="M 129.5,151.5 C 139.36,149.35 146.527,152.683 151,161.5C 151.667,194.833 151.667,228.167 151,261.5C 148.193,268.487 143.027,271.82 135.5,271.5C 127.973,271.82 122.807,268.487 120,261.5C 119.333,228.167 119.333,194.833 120,161.5C 122.022,156.98 125.189,153.647 129.5,151.5 Z"/></g>
<g><path style="opacity:0.985" fill="#000000" d="M 225.5,151.5 C 235.36,149.35 242.527,152.683 247,161.5C 247.667,194.833 247.667,228.167 247,261.5C 244.193,268.487 239.027,271.82 231.5,271.5C 223.973,271.82 218.807,268.487 216,261.5C 215.333,228.167 215.333,194.833 216,161.5C 218.022,156.98 221.189,153.647 225.5,151.5 Z"/></g>
<g><path style="opacity:0.982" fill="#000000" d="M 321.5,175.5 C 331.36,173.35 338.527,176.683 343,185.5C 343.667,210.833 343.667,236.167 343,261.5C 338.527,270.482 331.36,273.649 321.5,271C 317,269.167 313.833,266 312,261.5C 311.333,236.167 311.333,210.833 312,185.5C 314.022,180.98 317.189,177.647 321.5,175.5 Z"/></g>
<g><path style="opacity:0.978" fill="#000000" d="M 81.5,191.5 C 91.36,189.35 98.5267,192.683 103,201.5C 103.667,221.5 103.667,241.5 103,261.5C 98.5269,270.482 91.3603,273.649 81.5,271C 77,269.167 73.8333,266 72,261.5C 71.3333,241.5 71.3333,221.5 72,201.5C 74.0223,196.98 77.189,193.647 81.5,191.5 Z"/></g>
</svg>
