<?xml version="1.0" encoding="UTF-8"?>
<!DOCTYPE svg PUBLIC "-//W3C//DTD SVG 1.1//EN" "http://www.w3.org/Graphics/SVG/1.1/DTD/svg11.dtd">
<svg xmlns="http://www.w3.org/2000/svg" version="1.1" width="512px" height="512px" style="shape-rendering:geometricPrecision; text-rendering:geometricPrecision; image-rendering:optimizeQuality; fill-rule:evenodd; clip-rule:evenodd" xmlns:xlink="http://www.w3.org/1999/xlink">
<g><path style="opacity:0.991" fill="#000000" d="M 29.5,-0.5 C 180.5,-0.5 331.5,-0.5 482.5,-0.5C 471.503,149.13 460.836,298.797 450.5,448.5C 386.551,468.928 322.884,489.928 259.5,511.5C 257.167,511.5 254.833,511.5 252.5,511.5C 188.845,489.726 124.845,468.726 60.5,448.5C 50.1193,298.836 39.7859,149.17 29.5,-0.5 Z M 110.5,74.5 C 207.167,74.5 303.833,74.5 400.5,74.5C 399.167,94.5 397.833,114.5 396.5,134.5C 322.5,134.5 248.5,134.5 174.5,134.5C 175.857,160.188 177.524,185.855 179.5,211.5C 249.833,211.5 320.167,211.5 390.5,211.5C 386.897,271.771 382.564,331.938 377.5,392C 336.865,405.601 296.198,419.101 255.5,432.5C 214.436,418.979 173.603,404.979 133,390.5C 131.804,370.92 130.304,351.42 128.5,332C 148.167,331.333 167.833,331.333 187.5,332C 188.305,336.749 188.805,341.582 189,346.5C 189.374,347.416 189.874,348.25 190.5,349C 212.271,356.368 234.104,363.535 256,370.5C 277.87,363.265 299.704,355.932 321.5,348.5C 323.926,322.866 325.926,297.2 327.5,271.5C 259.833,271.5 192.167,271.5 124.5,271.5C 119.881,205.83 115.214,140.163 110.5,74.5 Z"/></g>
</svg>
