<?xml version="1.0" encoding="UTF-8"?>
<!DOCTYPE svg PUBLIC "-//W3C//DTD SVG 1.1//EN" "http://www.w3.org/Graphics/SVG/1.1/DTD/svg11.dtd">
<svg xmlns="http://www.w3.org/2000/svg" version="1.1" width="1878px" height="856px" style="shape-rendering:geometricPrecision; text-rendering:geometricPrecision; image-rendering:optimizeQuality; fill-rule:evenodd; clip-rule:evenodd" xmlns:xlink="http://www.w3.org/1999/xlink">
<g><path style="opacity:1" fill="#4a4a4a" d="M -0.5,-0.5 C 625.5,-0.5 1251.5,-0.5 1877.5,-0.5C 1877.5,42.5 1877.5,85.5 1877.5,128.5C 1251.5,128.5 625.5,128.5 -0.5,128.5C -0.5,85.5 -0.5,42.5 -0.5,-0.5 Z"/></g>
<g><path style="opacity:1" fill="#222222" d="M 443.5,18.5 C 497.25,18.0087 550.917,18.5087 604.5,20C 605.126,20.7504 605.626,21.5838 606,22.5C 606.167,35.3333 606.333,48.1667 606.5,61C 606.65,74.5907 606.15,88.0907 605,101.5C 604.25,102.126 603.416,102.626 602.5,103C 576,103.167 549.5,103.333 523,103.5C 495.749,103.659 468.582,103.159 441.5,102C 440.874,101.25 440.374,100.416 440,99.5C 439.333,73.8333 439.333,48.1667 440,22.5C 440.69,20.6498 441.856,19.3164 443.5,18.5 Z"/></g>
<g><path style="opacity:1" fill="#222222" d="M 660.5,18.5 C 736.501,18.3333 812.501,18.5 888.5,19C 890.333,19.5 891.5,20.6667 892,22.5C 892.667,48.1667 892.667,73.8333 892,99.5C 891.5,101.333 890.333,102.5 888.5,103C 812.5,103.667 736.5,103.667 660.5,103C 658.667,102.5 657.5,101.333 657,99.5C 656.333,73.8333 656.333,48.1667 657,22.5C 657.69,20.6498 658.856,19.3164 660.5,18.5 Z"/></g>
<g><path style="opacity:1" fill="#222222" d="M 946.5,18.5 C 998.917,18.0089 1051.25,18.5089 1103.5,20C 1104.13,20.7504 1104.63,21.5838 1105,22.5C 1105.17,35.3333 1105.33,48.1667 1105.5,61C 1105.65,74.5907 1105.15,88.0907 1104,101.5C 1103.25,102.126 1102.42,102.626 1101.5,103C 1075.67,103.167 1049.83,103.333 1024,103.5C 997.415,103.658 970.915,103.158 944.5,102C 943.874,101.25 943.374,100.416 943,99.5C 942.333,73.8333 942.333,48.1667 943,22.5C 943.69,20.6498 944.856,19.3164 946.5,18.5 Z"/></g>
<g><path style="opacity:1" fill="#222222" d="M 1159.5,18.5 C 1213.5,18.3333 1267.5,18.5 1321.5,19C 1323.33,19.5 1324.5,20.6667 1325,22.5C 1325.67,48.1667 1325.67,73.8333 1325,99.5C 1324.5,101.333 1323.33,102.5 1321.5,103C 1267.5,103.667 1213.5,103.667 1159.5,103C 1157.67,102.5 1156.5,101.333 1156,99.5C 1155.33,73.8333 1155.33,48.1667 1156,22.5C 1156.69,20.6498 1157.86,19.3164 1159.5,18.5 Z"/></g>
<g><path style="opacity:1" fill="#4a4a4a" d="M 443.5,20.5 C 496.501,20.3333 549.501,20.5 602.5,21C 603,21.5 603.5,22 604,22.5C 604.667,48.1667 604.667,73.8333 604,99.5C 603.5,100 603,100.5 602.5,101C 549.5,101.667 496.5,101.667 443.5,101C 443,100.5 442.5,100 442,99.5C 441.333,73.8333 441.333,48.1667 442,22.5C 442.717,21.9558 443.217,21.2891 443.5,20.5 Z"/></g>
<g><path style="opacity:1" fill="#4a4a4a" d="M 660.5,20.5 C 736.501,20.3333 812.501,20.5 888.5,21C 889,21.5 889.5,22 890,22.5C 890.667,48.1667 890.667,73.8333 890,99.5C 889.5,100 889,100.5 888.5,101C 812.5,101.667 736.5,101.667 660.5,101C 660,100.5 659.5,100 659,99.5C 658.333,73.8333 658.333,48.1667 659,22.5C 659.717,21.9558 660.217,21.2891 660.5,20.5 Z"/></g>
<g><path style="opacity:1" fill="#4a4a4a" d="M 946.5,20.5 C 998.168,20.3333 1049.83,20.5 1101.5,21C 1102,21.5 1102.5,22 1103,22.5C 1103.67,48.1667 1103.67,73.8333 1103,99.5C 1102.5,100 1102,100.5 1101.5,101C 1049.83,101.667 998.167,101.667 946.5,101C 946,100.5 945.5,100 945,99.5C 944.333,73.8333 944.333,48.1667 945,22.5C 945.717,21.9558 946.217,21.2891 946.5,20.5 Z"/></g>
<g><path style="opacity:1" fill="#4a4a4a" d="M 1159.5,20.5 C 1213.5,20.3333 1267.5,20.5 1321.5,21C 1322,21.5 1322.5,22 1323,22.5C 1323.67,48.1667 1323.67,73.8333 1323,99.5C 1322.5,100 1322,100.5 1321.5,101C 1267.5,101.667 1213.5,101.667 1159.5,101C 1159,100.5 1158.5,100 1158,99.5C 1157.33,73.8333 1157.33,48.1667 1158,22.5C 1158.72,21.9558 1159.22,21.2891 1159.5,20.5 Z"/></g>
<g><path style="opacity:1" fill="#3a3a7c" d="M 1436.5,38.5 C 1439.33,39.0787 1441.66,40.412 1443.5,42.5C 1443.5,43.1667 1443.17,43.5 1442.5,43.5C 1440.78,41.9752 1438.78,40.9752 1436.5,40.5C 1436.5,39.8333 1436.5,39.1667 1436.5,38.5 Z"/></g>
<g><path style="opacity:1" fill="#313277" d="M 1426.5,39.5 C 1426.5,39.8333 1426.5,40.1667 1426.5,40.5C 1424.52,41.4706 1422.52,42.4706 1420.5,43.5C 1420.17,43.5 1419.83,43.5 1419.5,43.5C 1421.34,41.3311 1423.67,39.9977 1426.5,39.5 Z"/></g>
<g><path style="opacity:1" fill="#f5a4a6" d="M 1428.5,38.5 C 1430.5,38.5 1432.5,38.5 1434.5,38.5C 1434.5,41.5 1434.5,44.5 1434.5,47.5C 1432.38,47.3253 1430.38,47.6586 1428.5,48.5C 1428.5,45.1667 1428.5,41.8333 1428.5,38.5 Z"/></g>
<g><path style="opacity:1" fill="#9596c4" d="M 1426.5,40.5 C 1426.81,42.924 1426.47,45.2573 1425.5,47.5C 1423.79,46.1128 1422.12,44.7794 1420.5,43.5C 1422.52,42.4706 1424.52,41.4706 1426.5,40.5 Z"/></g>
<g><path style="opacity:1" fill="#9c9dc8" d="M 1436.5,40.5 C 1438.78,40.9752 1440.78,41.9752 1442.5,43.5C 1440.88,44.7794 1439.21,46.1128 1437.5,47.5C 1436.53,45.2573 1436.19,42.924 1436.5,40.5 Z"/></g>
<g><path style="opacity:1" fill="#f1e9ea" d="M 1428.5,38.5 C 1428.5,41.8333 1428.5,45.1667 1428.5,48.5C 1428.5,49.8333 1428.5,51.1667 1428.5,52.5C 1423.83,52.5 1419.17,52.5 1414.5,52.5C 1415.9,51.8999 1416.9,50.8999 1417.5,49.5C 1418.74,50.4124 1420.07,50.5791 1421.5,50C 1420.27,48.5952 1418.94,47.4286 1417.5,46.5C 1417.43,44.9731 1418.09,43.9731 1419.5,43.5C 1419.83,43.5 1420.17,43.5 1420.5,43.5C 1422.12,44.7794 1423.79,46.1128 1425.5,47.5C 1426.47,45.2573 1426.81,42.924 1426.5,40.5C 1426.5,40.1667 1426.5,39.8333 1426.5,39.5C 1426.84,38.6618 1427.51,38.3284 1428.5,38.5 Z"/></g>
<g><path style="opacity:1" fill="#e16164" d="M 1445.5,44.5 C 1446.34,44.8417 1446.67,45.5084 1446.5,46.5C 1433.71,53.2322 1433.38,52.5656 1445.5,44.5 Z"/></g>
<g><path style="opacity:1" fill="#e4e7e7" d="M 769.5,49.5 C 770.978,49.238 772.311,49.5713 773.5,50.5C 772.754,51.7362 772.421,53.0695 772.5,54.5C 767.259,55.0502 766.259,53.3836 769.5,49.5 Z"/></g>
<g><path style="opacity:1" fill="#dd4549" d="M 1417.5,46.5 C 1418.94,47.4286 1420.27,48.5952 1421.5,50C 1420.07,50.5791 1418.74,50.4124 1417.5,49.5C 1416.38,48.3478 1416.38,47.3478 1417.5,46.5 Z"/></g>
<g><path style="opacity:1" fill="#edf1ed" d="M 552.5,50.5 C 554.167,50.5 555.833,50.5 557.5,50.5C 557.5,51.8333 557.5,53.1667 557.5,54.5C 555.833,54.5 554.167,54.5 552.5,54.5C 552.5,53.1667 552.5,51.8333 552.5,50.5 Z"/></g>
<g><path style="opacity:1" fill="#f6f9f6" d="M 559.5,50.5 C 561.167,50.5 562.833,50.5 564.5,50.5C 564.266,56.3075 564.933,61.9742 566.5,67.5C 564.208,67.7564 562.041,67.4231 560,66.5C 559.501,61.1771 559.334,55.8437 559.5,50.5 Z"/></g>
<g><path style="opacity:1" fill="#f1f1ef" d="M 485.5,51.5 C 487.527,51.3379 489.527,51.5045 491.5,52C 493.593,56.7759 495.593,61.6093 497.5,66.5C 495.604,67.4656 493.604,67.7989 491.5,67.5C 491.5,66.5 491.5,65.5 491.5,64.5C 487.702,65.1544 484.036,66.1544 480.5,67.5C 481.579,62.0024 483.246,56.669 485.5,51.5 Z"/></g>
<g><path style="opacity:1" fill="#f4f3ef" d="M 700.5,51.5 C 703.833,51.5 707.167,51.5 710.5,51.5C 710.5,52.8333 710.5,54.1667 710.5,55.5C 707.813,55.3359 705.146,55.5026 702.5,56C 701.167,58.3333 701.167,60.6667 702.5,63C 705.146,63.4974 707.813,63.6641 710.5,63.5C 710.5,64.8333 710.5,66.1667 710.5,67.5C 699.213,69.9666 694.713,65.6332 697,54.5C 698.145,53.3636 699.312,52.3636 700.5,51.5 Z"/></g>
<g><path style="opacity:1" fill="#f7f7f3" d="M 983.5,51.5 C 987.182,51.3347 990.848,51.5014 994.5,52C 995.416,52.3742 996.25,52.8742 997,53.5C 998.713,60.6237 995.88,63.957 988.5,63.5C 988.5,64.8333 988.5,66.1667 988.5,67.5C 986.833,67.5 985.167,67.5 983.5,67.5C 983.5,62.1667 983.5,56.8333 983.5,51.5 Z"/></g>
<g><path style="opacity:1" fill="#f3f6f5" d="M 1199.5,51.5 C 1202.83,51.5 1206.17,51.5 1209.5,51.5C 1209.5,52.8333 1209.5,54.1667 1209.5,55.5C 1206.81,55.3359 1204.15,55.5026 1201.5,56C 1199.87,62.5288 1202.53,65.0288 1209.5,63.5C 1209.5,64.8333 1209.5,66.1667 1209.5,67.5C 1199.35,69.506 1194.85,65.506 1196,55.5C 1197.38,54.2949 1198.54,52.9616 1199.5,51.5 Z"/></g>
<g><path style="opacity:1" fill="#efe0e1" d="M 1434.5,38.5 C 1435.17,38.5 1435.83,38.5 1436.5,38.5C 1436.5,39.1667 1436.5,39.8333 1436.5,40.5C 1436.19,42.924 1436.53,45.2573 1437.5,47.5C 1439.21,46.1128 1440.88,44.7794 1442.5,43.5C 1443.17,43.5 1443.5,43.1667 1443.5,42.5C 1444.5,42.8333 1445.17,43.5 1445.5,44.5C 1433.38,52.5656 1433.71,53.2322 1446.5,46.5C 1447.29,46.7828 1447.96,47.2828 1448.5,48C 1447.17,49 1445.83,50 1444.5,51C 1446.38,51.1981 1448.05,51.6981 1449.5,52.5C 1444.5,52.5 1439.5,52.5 1434.5,52.5C 1434.5,50.8333 1434.5,49.1667 1434.5,47.5C 1434.5,44.5 1434.5,41.5 1434.5,38.5 Z"/></g>
<g><path style="opacity:1" fill="#ece9e2" d="M 785.5,59.5 C 784.414,59.62 783.747,60.2867 783.5,61.5C 783.747,62.7133 784.414,63.38 785.5,63.5C 785.833,63.5 786.167,63.5 786.5,63.5C 786.5,63.8333 786.5,64.1667 786.5,64.5C 786.5,65.5 786.5,66.5 786.5,67.5C 779.791,68.7762 776.457,66.1095 776.5,59.5C 776.674,57.139 777.007,54.8056 777.5,52.5C 779.5,52.1667 781.5,51.8333 783.5,51.5C 784.167,54.1667 784.833,56.8333 785.5,59.5 Z"/></g>
<g><path style="opacity:1" fill="#df3e41" d="M 1434.5,47.5 C 1434.5,49.1667 1434.5,50.8333 1434.5,52.5C 1439.5,52.5 1444.5,52.5 1449.5,52.5C 1449.5,54.8333 1449.5,57.1667 1449.5,59.5C 1444.5,59.5 1439.5,59.5 1434.5,59.5C 1437.96,58.5184 1441.63,58.185 1445.5,58.5C 1445.5,56.8333 1445.5,55.1667 1445.5,53.5C 1435.83,53.5 1426.17,53.5 1416.5,53.5C 1416.5,55.1667 1416.5,56.8333 1416.5,58.5C 1420.7,58.1832 1424.7,58.5166 1428.5,59.5C 1423.83,59.5 1419.17,59.5 1414.5,59.5C 1414.5,57.1667 1414.5,54.8333 1414.5,52.5C 1419.17,52.5 1423.83,52.5 1428.5,52.5C 1428.5,51.1667 1428.5,49.8333 1428.5,48.5C 1430.38,47.6586 1432.38,47.3253 1434.5,47.5 Z"/></g>
<g><path style="opacity:1" fill="#c7d0d3" d="M 1023.5,50.5 C 1025.5,50.5 1027.5,50.5 1029.5,50.5C 1029.5,51.8333 1029.5,53.1667 1029.5,54.5C 1027.5,54.5 1025.5,54.5 1023.5,54.5C 1023.5,53.1667 1023.5,51.8333 1023.5,50.5 Z"/></g>
<g><path style="opacity:1" fill="#eb2129" d="M 1434.5,59.5 C 1432.5,59.5 1430.5,59.5 1428.5,59.5C 1424.7,58.5166 1420.7,58.1832 1416.5,58.5C 1416.5,56.8333 1416.5,55.1667 1416.5,53.5C 1426.17,53.5 1435.83,53.5 1445.5,53.5C 1445.5,55.1667 1445.5,56.8333 1445.5,58.5C 1441.63,58.185 1437.96,58.5184 1434.5,59.5 Z"/></g>
<g><path style="opacity:1" fill="#f1f0ec" d="M 500.5,55.5 C 503.187,55.3359 505.854,55.5026 508.5,56C 509.529,59.0571 510.862,59.0571 512.5,56C 515.482,55.502 518.482,55.3354 521.5,55.5C 521.5,56.8333 521.5,58.1667 521.5,59.5C 519.5,59.5 517.5,59.5 515.5,59.5C 515.5,60.8333 515.5,62.1667 515.5,63.5C 517.5,63.5 519.5,63.5 521.5,63.5C 521.5,64.8333 521.5,66.1667 521.5,67.5C 518.482,67.6646 515.482,67.498 512.5,67C 510.443,63.7002 509.443,63.8669 509.5,67.5C 500.684,69.5061 496.85,66.1727 498,57.5C 498.995,56.9341 499.828,56.2674 500.5,55.5 Z"/></g>
<g><path style="opacity:1" fill="#f3f0e9" d="M 522.5,55.5 C 524.5,55.5 526.5,55.5 528.5,55.5C 528.5,58.1667 528.5,60.8333 528.5,63.5C 529.5,63.5 530.5,63.5 531.5,63.5C 531.5,60.8333 531.5,58.1667 531.5,55.5C 533.167,55.5 534.833,55.5 536.5,55.5C 536.5,59.5 536.5,63.5 536.5,67.5C 532.486,67.6655 528.486,67.4988 524.5,67C 524,66.5 523.5,66 523,65.5C 522.502,62.1832 522.335,58.8499 522.5,55.5 Z"/></g>
<g><path style="opacity:1" fill="#edf0f0" d="M 540.5,55.5 C 542.857,55.3367 545.19,55.5034 547.5,56C 548.667,56.5 549.5,57.3333 550,58.5C 550.483,57.552 550.649,56.552 550.5,55.5C 552.833,55.5 555.167,55.5 557.5,55.5C 557.5,59.5 557.5,63.5 557.5,67.5C 555.833,67.5 554.167,67.5 552.5,67.5C 552.086,56.9738 551.086,56.9738 549.5,67.5C 541.19,69.6632 537.356,66.6632 538,58.5C 538.698,57.3094 539.531,56.3094 540.5,55.5 Z"/></g>
<g><path style="opacity:1" fill="#f4f4f1" d="M 714.5,55.5 C 723.347,53.6299 726.847,56.9632 725,65.5C 720.948,67.9423 716.781,68.109 712.5,66C 711.39,63.2628 711.223,60.4294 712,57.5C 712.995,56.9341 713.828,56.2674 714.5,55.5 Z"/></g>
<g><path style="opacity:1" fill="#f3f5f0" d="M 726.5,55.5 C 732.989,55.8427 739.322,56.0093 745.5,56C 746.46,59.73 746.793,63.5633 746.5,67.5C 744.833,67.5 743.167,67.5 741.5,67.5C 740.833,56.8333 740.167,56.8333 739.5,67.5C 737.833,67.5 736.167,67.5 734.5,67.5C 734.663,65.1432 734.497,62.8098 734,60.5C 733.586,60.0426 733.086,59.7093 732.5,59.5C 731.52,62.0865 731.187,64.7531 731.5,67.5C 729.833,67.5 728.167,67.5 726.5,67.5C 726.5,63.5 726.5,59.5 726.5,55.5 Z"/></g>
<g><path style="opacity:1" fill="#eff1f0" d="M 776.5,59.5 C 777.049,67.0345 773.715,69.5345 766.5,67C 764.667,66.5 763.5,65.3333 763,63.5C 760.761,66.962 757.594,68.2954 753.5,67.5C 753.5,69.1667 753.5,70.8333 753.5,72.5C 751.833,72.5 750.167,72.5 748.5,72.5C 748.5,66.8333 748.5,61.1667 748.5,55.5C 752.182,55.3347 755.848,55.5014 759.5,56C 761.5,59.3333 763.5,59.3333 765.5,56C 770.128,54.6631 773.795,55.8298 776.5,59.5 Z"/></g>
<g><path style="opacity:1" fill="#eeeeeb" d="M 786.5,64.5 C 786.5,64.1667 786.5,63.8333 786.5,63.5C 785.853,55.9965 789.186,53.4965 796.5,56C 798.357,57.1824 799.357,58.849 799.5,61C 798.923,63.137 798.59,65.3037 798.5,67.5C 793.927,68.2312 789.927,67.2312 786.5,64.5 Z"/></g>
<g><path style="opacity:1" fill="#edede9" d="M 800.5,55.5 C 804.514,55.3345 808.514,55.5012 812.5,56C 813,56.5 813.5,57 814,57.5C 814.498,60.8168 814.665,64.1501 814.5,67.5C 812.5,67.5 810.5,67.5 808.5,67.5C 807.833,56.8333 807.167,56.8333 806.5,67.5C 804.5,67.5 802.5,67.5 800.5,67.5C 800.5,63.5 800.5,59.5 800.5,55.5 Z"/></g>
<g><path style="opacity:1" fill="#f3f3f1" d="M 817.5,55.5 C 820.5,55.5 823.5,55.5 826.5,55.5C 826.5,56.8333 826.5,58.1667 826.5,59.5C 824.5,59.5 822.5,59.5 820.5,59.5C 820.5,60.8333 820.5,62.1667 820.5,63.5C 822.5,63.5 824.5,63.5 826.5,63.5C 826.5,64.8333 826.5,66.1667 826.5,67.5C 815.755,69.1002 812.755,65.1002 817.5,55.5 Z"/></g>
<g><path style="opacity:1" fill="#eceeee" d="M 830.5,55.5 C 840.06,54.225 843.06,58.0583 839.5,67C 831.193,69.6629 827.36,66.8295 828,58.5C 829.045,57.6266 829.878,56.6266 830.5,55.5 Z"/></g>
<g><path style="opacity:1" fill="#efeeec" d="M 842.5,55.5 C 845.833,55.5 849.167,55.5 852.5,55.5C 852.5,56.8333 852.5,58.1667 852.5,59.5C 847.461,59.4511 847.295,60.1177 852,61.5C 852.798,63.2588 852.631,64.9255 851.5,66.5C 848.242,67.4173 844.909,67.7507 841.5,67.5C 841.5,66.1667 841.5,64.8333 841.5,63.5C 846.021,63.6738 846.355,63.0071 842.5,61.5C 841.306,59.4844 841.306,57.4844 842.5,55.5 Z"/></g>
<g><path style="opacity:1" fill="#4c4c59" d="M 988.5,55.5 C 989.833,55.5 991.167,55.5 992.5,55.5C 992.833,58.5 991.5,59.8333 988.5,59.5C 988.5,58.1667 988.5,56.8333 988.5,55.5 Z"/></g>
<g><path style="opacity:1" fill="#f5f6f3" d="M 998.5,55.5 C 1002.03,54.9889 1005.2,55.6556 1008,57.5C 1012.33,54.8333 1016.67,54.8333 1021,57.5C 1022.84,66.1959 1019.34,69.3625 1010.5,67C 1007.96,65.1516 1006.96,62.6516 1007.5,59.5C 1006.17,59.5 1004.83,59.5 1003.5,59.5C 1003.5,62.1667 1003.5,64.8333 1003.5,67.5C 1001.83,67.5 1000.17,67.5 998.5,67.5C 998.5,63.5 998.5,59.5 998.5,55.5 Z"/></g>
<g><path style="opacity:1" fill="#f5f4ee" d="M 1022.5,55.5 C 1024.83,55.5 1027.17,55.5 1029.5,55.5C 1029.67,60.8437 1029.5,66.1771 1029,71.5C 1026.07,74.2393 1023.57,74.0726 1021.5,71C 1023.92,69.351 1024.92,67.0177 1024.5,64C 1023.9,61.1132 1023.23,58.2799 1022.5,55.5 Z"/></g>
<g><path style="opacity:1" fill="#ebedee" d="M 1044.5,59.5 C 1045.05,67.0345 1041.72,69.5345 1034.5,67C 1029.71,63.74 1029.38,60.0734 1033.5,56C 1038.13,54.6631 1041.79,55.8298 1044.5,59.5 Z"/></g>
<g><path style="opacity:1" fill="#efeeea" d="M 1044.5,59.5 C 1044.67,57.139 1045.01,54.8056 1045.5,52.5C 1047.5,52.1667 1049.5,51.8333 1051.5,51.5C 1051.58,53.6663 1052.25,55.6663 1053.5,57.5C 1052.25,59.3337 1051.58,61.3337 1051.5,63.5C 1053.86,63.6633 1056.19,63.4966 1058.5,63C 1054.56,62.0226 1053.56,59.6892 1055.5,56C 1058.48,55.502 1061.48,55.3354 1064.5,55.5C 1064.5,56.8333 1064.5,58.1667 1064.5,59.5C 1063.45,59.3505 1062.45,59.5172 1061.5,60C 1065.36,60.7655 1066.36,62.9322 1064.5,66.5C 1058.89,67.6209 1053.22,67.7876 1047.5,67C 1046.03,64.6215 1045.03,62.1215 1044.5,59.5 Z"/></g>
<g><path style="opacity:1" fill="#f4f5f3" d="M 1213.5,55.5 C 1222.35,53.6299 1225.85,56.9632 1224,65.5C 1214.71,70.2684 1210.37,67.6018 1211,57.5C 1211.99,56.9341 1212.83,56.2674 1213.5,55.5 Z"/></g>
<g><path style="opacity:1" fill="#f8f9f5" d="M 1226.5,55.5 C 1230.51,55.3345 1234.51,55.5012 1238.5,56C 1239.46,59.73 1239.79,63.5633 1239.5,67.5C 1237.83,67.5 1236.17,67.5 1234.5,67.5C 1234.5,64.8333 1234.5,62.1667 1234.5,59.5C 1233.5,59.5 1232.5,59.5 1231.5,59.5C 1231.5,62.1667 1231.5,64.8333 1231.5,67.5C 1229.83,67.5 1228.17,67.5 1226.5,67.5C 1226.5,63.5 1226.5,59.5 1226.5,55.5 Z"/></g>
<g><path style="opacity:1" fill="#f1efea" d="M 1244.5,51.5 C 1245.5,51.5 1246.5,51.5 1247.5,51.5C 1247.58,53.6663 1248.25,55.6663 1249.5,57.5C 1246.78,60.1774 1246.95,62.5108 1250,64.5C 1250.2,62.5975 1251.03,61.0975 1252.5,60C 1251.17,58.6667 1251.17,57.3333 1252.5,56C 1262.4,53.7346 1266.07,57.568 1263.5,67.5C 1256.68,67.1997 1250.01,67.0331 1243.5,67C 1240.94,62.4609 1240.27,57.6275 1241.5,52.5C 1242.79,52.7373 1243.79,52.404 1244.5,51.5 Z"/></g>
<g><path style="opacity:1" fill="#f1f0ec" d="M 1281.5,51.5 C 1283.18,52.1834 1283.84,53.5168 1283.5,55.5C 1284.5,55.5 1285.5,55.5 1286.5,55.5C 1286.5,56.8333 1286.5,58.1667 1286.5,59.5C 1285.5,59.5 1284.5,59.5 1283.5,59.5C 1283.5,60.8333 1283.5,62.1667 1283.5,63.5C 1284.5,63.5 1285.5,63.5 1286.5,63.5C 1286.5,64.8333 1286.5,66.1667 1286.5,67.5C 1279.5,69.1667 1276.83,66.5 1278.5,59.5C 1275.5,59.5 1272.5,59.5 1269.5,59.5C 1269.5,60.8333 1269.5,62.1667 1269.5,63.5C 1271.83,63.5 1274.17,63.5 1276.5,63.5C 1276.5,64.8333 1276.5,66.1667 1276.5,67.5C 1273.48,67.6646 1270.48,67.498 1267.5,67C 1263.5,63.3333 1263.5,59.6667 1267.5,56C 1271.15,55.5014 1274.82,55.3347 1278.5,55.5C 1278.5,54.5 1278.5,53.5 1278.5,52.5C 1279.79,52.7373 1280.79,52.404 1281.5,51.5 Z"/></g>
<g><path style="opacity:1" fill="#69565d" d="M 487.5,57.5 C 489.465,57.9483 489.798,58.9483 488.5,60.5C 487.614,59.675 487.281,58.675 487.5,57.5 Z"/></g>
<g><path style="opacity:1" fill="#594f4c" d="M 502.5,59.5 C 504.833,59.5 507.167,59.5 509.5,59.5C 509.5,60.8333 509.5,62.1667 509.5,63.5C 507.167,63.5 504.833,63.5 502.5,63.5C 502.5,62.1667 502.5,60.8333 502.5,59.5 Z"/></g>
<g><path style="opacity:1" fill="#655766" d="M 716.5,59.5 C 717.833,59.5 719.167,59.5 720.5,59.5C 720.5,60.8333 720.5,62.1667 720.5,63.5C 719.167,63.5 717.833,63.5 716.5,63.5C 716.5,62.1667 716.5,60.8333 716.5,59.5 Z"/></g>
<g><path style="opacity:1" fill="#604b4b" d="M 753.5,59.5 C 754.5,59.5 755.5,59.5 756.5,59.5C 756.5,60.8333 756.5,62.1667 756.5,63.5C 755.5,63.5 754.5,63.5 753.5,63.5C 753.5,62.1667 753.5,60.8333 753.5,59.5 Z"/></g>
<g><path style="opacity:1" fill="#494a49" d="M 785.5,59.5 C 785.5,60.8333 785.5,62.1667 785.5,63.5C 784.414,63.38 783.747,62.7133 783.5,61.5C 783.747,60.2867 784.414,59.62 785.5,59.5 Z"/></g>
<g><path style="opacity:1" fill="#67545d" d="M 1012.5,59.5 C 1013.83,59.5 1015.17,59.5 1016.5,59.5C 1016.5,60.8333 1016.5,62.1667 1016.5,63.5C 1015.17,63.5 1013.83,63.5 1012.5,63.5C 1012.5,62.1667 1012.5,60.8333 1012.5,59.5 Z"/></g>
<g><path style="opacity:1" fill="#67545d" d="M 1215.5,59.5 C 1216.83,59.5 1218.17,59.5 1219.5,59.5C 1219.5,60.8333 1219.5,62.1667 1219.5,63.5C 1218.17,63.5 1216.83,63.5 1215.5,63.5C 1215.5,62.1667 1215.5,60.8333 1215.5,59.5 Z"/></g>
<g><path style="opacity:1" fill="#e7dfe0" d="M 1434.5,59.5 C 1439.5,59.5 1444.5,59.5 1449.5,59.5C 1448.39,60.29 1447.06,60.79 1445.5,61C 1446.74,61.69 1446.74,62.19 1445.5,62.5C 1443.7,61.0906 1441.7,60.5906 1439.5,61C 1441.72,62.7235 1444.05,64.2235 1446.5,65.5C 1446.07,66.7095 1445.4,67.7095 1444.5,68.5C 1443.61,67.8902 1442.61,67.5569 1441.5,67.5C 1440.59,66.0351 1439.26,65.0351 1437.5,64.5C 1436.53,66.7427 1436.19,69.076 1436.5,71.5C 1436.5,71.8333 1436.5,72.1667 1436.5,72.5C 1434.73,69.8774 1434.07,66.8774 1434.5,63.5C 1434.5,62.1667 1434.5,60.8333 1434.5,59.5 Z"/></g>
<g><path style="opacity:1" fill="#dcd6d8" d="M 1414.5,59.5 C 1419.17,59.5 1423.83,59.5 1428.5,59.5C 1428.5,60.8333 1428.5,62.1667 1428.5,63.5C 1428.5,66.8333 1428.5,70.1667 1428.5,73.5C 1427.51,73.6716 1426.84,73.3382 1426.5,72.5C 1427.7,63.6209 1425.37,62.2876 1419.5,68.5C 1418.66,68.1583 1418.33,67.4916 1418.5,66.5C 1421.29,64.8874 1423.95,63.054 1426.5,61C 1425.17,60.3333 1423.83,60.3333 1422.5,61C 1420.94,62.736 1419.27,64.236 1417.5,65.5C 1414.89,64.1501 1414.89,62.6501 1417.5,61C 1416.26,60.7679 1415.26,60.2679 1414.5,59.5 Z"/></g>
<g><path style="opacity:1" fill="#5d596d" d="M 1255.5,62.5 C 1256.68,62.281 1257.68,62.6143 1258.5,63.5C 1256.95,64.7979 1255.95,64.4646 1255.5,62.5 Z"/></g>
<g><path style="opacity:1" fill="#f2656b" d="M 1428.5,59.5 C 1430.5,59.5 1432.5,59.5 1434.5,59.5C 1434.5,60.8333 1434.5,62.1667 1434.5,63.5C 1432.5,63.5 1430.5,63.5 1428.5,63.5C 1428.5,62.1667 1428.5,60.8333 1428.5,59.5 Z"/></g>
<g><path style="opacity:1" fill="#d14a4a" d="M 1445.5,62.5 C 1445.95,63.4584 1446.62,64.2917 1447.5,65C 1447.27,65.3988 1446.94,65.5654 1446.5,65.5C 1444.05,64.2235 1441.72,62.7235 1439.5,61C 1441.7,60.5906 1443.7,61.0906 1445.5,62.5 Z"/></g>
<g><path style="opacity:1" fill="#d54d4f" d="M 1418.5,66.5 C 1417.83,66.5 1417.5,66.1667 1417.5,65.5C 1419.27,64.236 1420.94,62.736 1422.5,61C 1423.83,60.3333 1425.17,60.3333 1426.5,61C 1423.95,63.054 1421.29,64.8874 1418.5,66.5 Z"/></g>
<g><path style="opacity:1" fill="#8688b5" d="M 1441.5,67.5 C 1439.83,68.8333 1438.17,70.1667 1436.5,71.5C 1436.19,69.076 1436.53,66.7427 1437.5,64.5C 1439.26,65.0351 1440.59,66.0351 1441.5,67.5 Z"/></g>
<g><path style="opacity:1" fill="#555789" d="M 1426.5,72.5 C 1423.67,72.0023 1421.34,70.6689 1419.5,68.5C 1425.37,62.2876 1427.7,63.6209 1426.5,72.5 Z"/></g>
<g><path style="opacity:1" fill="#df8f92" d="M 1428.5,63.5 C 1430.5,63.5 1432.5,63.5 1434.5,63.5C 1434.07,66.8774 1434.73,69.8774 1436.5,72.5C 1436.5,72.8333 1436.5,73.1667 1436.5,73.5C 1433.83,73.5 1431.17,73.5 1428.5,73.5C 1428.5,70.1667 1428.5,66.8333 1428.5,63.5 Z"/></g>
<g><path style="opacity:1" fill="#3f406d" d="M 1441.5,67.5 C 1442.61,67.5569 1443.61,67.8902 1444.5,68.5C 1442.37,70.9501 1439.7,72.6167 1436.5,73.5C 1436.5,73.1667 1436.5,72.8333 1436.5,72.5C 1436.5,72.1667 1436.5,71.8333 1436.5,71.5C 1438.17,70.1667 1439.83,68.8333 1441.5,67.5 Z"/></g>
<g><path style="opacity:1" fill="#222222" d="M -0.5,128.5 C 625.5,128.5 1251.5,128.5 1877.5,128.5C 1877.5,370.833 1877.5,613.167 1877.5,855.5C 1781.5,855.5 1685.5,855.5 1589.5,855.5C 1589.67,741.5 1589.5,627.5 1589,513.5C 1584.83,496.984 1574.33,487.151 1557.5,484C 1351.17,483.833 1144.83,483.667 938.5,483.5C 732.167,483.667 525.833,483.833 319.5,484C 303.667,487.833 293.833,497.667 290,513.5C 289.5,627.5 289.333,741.5 289.5,855.5C 192.833,855.5 96.1667,855.5 -0.5,855.5C -0.5,613.167 -0.5,370.833 -0.5,128.5 Z"/></g>
<g><path style="opacity:1" fill="#f7f7f7" d="M 1042.5,152.5 C 1045.17,152.5 1047.83,152.5 1050.5,152.5C 1050.33,166.171 1050.5,179.837 1051,193.5C 1052.7,194.406 1054.53,194.739 1056.5,194.5C 1056.88,200.996 1053.88,203.162 1047.5,201C 1046.07,200.535 1044.9,199.701 1044,198.5C 1042.55,183.238 1042.05,167.905 1042.5,152.5 Z"/></g>
<g><path style="opacity:1" fill="#ececec" d="M 794.5,153.5 C 797.5,153.5 800.5,153.5 803.5,153.5C 803.5,155.833 803.5,158.167 803.5,160.5C 800.5,160.5 797.5,160.5 794.5,160.5C 794.5,158.167 794.5,155.833 794.5,153.5 Z"/></g>
<g><path style="opacity:1" fill="#f5f5f5" d="M 696.5,155.5 C 699.167,155.5 701.833,155.5 704.5,155.5C 704.667,168.504 704.5,181.504 704,194.5C 697.484,201.219 689.65,203.219 680.5,200.5C 680.5,198.167 680.5,195.833 680.5,193.5C 683.374,193.451 686.208,193.784 689,194.5C 691.7,194.27 694.033,193.27 696,191.5C 696.5,179.505 696.667,167.505 696.5,155.5 Z"/></g>
<g><path style="opacity:1" fill="#f5f5f5" d="M 891.5,155.5 C 899.84,155.334 908.173,155.5 916.5,156C 927.21,159.403 931.543,166.737 929.5,178C 930.861,185.485 928.861,191.819 923.5,197C 921.283,198.275 918.949,199.275 916.5,200C 908.173,200.5 899.84,200.666 891.5,200.5C 891.5,185.5 891.5,170.5 891.5,155.5 Z"/></g>
<g><path style="opacity:1" fill="#9f9f9f" d="M 912.5,162.5 C 908.5,162.5 904.5,162.5 900.5,162.5C 900.5,172.833 900.5,183.167 900.5,193.5C 904.5,193.5 908.5,193.5 912.5,193.5C 908.366,194.485 904.032,194.818 899.5,194.5C 899.5,183.5 899.5,172.5 899.5,161.5C 904.032,161.182 908.366,161.515 912.5,162.5 Z"/></g>
<g><path style="opacity:1" fill="#222222" d="M 912.5,162.5 C 914.991,162.829 917.157,163.829 919,165.5C 922.333,173.833 922.333,182.167 919,190.5C 917.157,192.171 914.991,193.171 912.5,193.5C 908.5,193.5 904.5,193.5 900.5,193.5C 900.5,183.167 900.5,172.833 900.5,162.5C 904.5,162.5 908.5,162.5 912.5,162.5 Z"/></g>
<g><path style="opacity:1" fill="#ececec" d="M 711.5,167.5 C 714.5,167.5 717.5,167.5 720.5,167.5C 720.334,175.507 720.5,183.507 721,191.5C 725.095,195.152 729.595,195.485 734.5,192.5C 735.498,184.193 735.831,175.86 735.5,167.5C 738.5,167.5 741.5,167.5 744.5,167.5C 744.5,178.5 744.5,189.5 744.5,200.5C 741.833,200.5 739.167,200.5 736.5,200.5C 736.649,199.448 736.483,198.448 736,197.5C 728.295,203.143 720.962,202.809 714,196.5C 713.333,195.167 712.667,193.833 712,192.5C 711.5,184.173 711.334,175.84 711.5,167.5 Z"/></g>
<g><path style="opacity:1" fill="#eeeeee" d="M 782.5,171.5 C 783.392,181.134 783.725,190.801 783.5,200.5C 780.833,200.5 778.167,200.5 775.5,200.5C 775.666,192.16 775.5,183.827 775,175.5C 771.817,173.477 768.317,172.977 764.5,174C 763.069,174.465 761.903,175.299 761,176.5C 760.5,184.493 760.334,192.493 760.5,200.5C 757.5,200.5 754.5,200.5 751.5,200.5C 751.5,189.5 751.5,178.5 751.5,167.5C 754.167,167.5 756.833,167.5 759.5,167.5C 759.281,168.675 759.614,169.675 760.5,170.5C 768.25,164.894 775.583,165.227 782.5,171.5 Z"/></g>
<g><path style="opacity:1" fill="#f9f9f9" d="M 790.5,167.5 C 794.833,167.5 799.167,167.5 803.5,167.5C 803.5,178.5 803.5,189.5 803.5,200.5C 800.833,200.5 798.167,200.5 795.5,200.5C 795.5,191.5 795.5,182.5 795.5,173.5C 793.833,173.5 792.167,173.5 790.5,173.5C 790.5,171.5 790.5,169.5 790.5,167.5 Z"/></g>
<g><path style="opacity:1" fill="#f4f4f4" d="M 822.5,166.5 C 843.393,166.273 849.893,175.94 842,195.5C 833.777,202.339 824.944,203.172 815.5,198C 813.457,196.189 811.957,194.022 811,191.5C 807.398,179.384 811.232,171.05 822.5,166.5 Z"/></g>
<g><path style="opacity:1" fill="#f5f5f5" d="M 868.5,166.5 C 869.5,166.5 870.5,166.5 871.5,166.5C 871.5,168.833 871.5,171.167 871.5,173.5C 867.564,173.478 863.897,174.478 860.5,176.5C 859.502,184.472 859.169,192.472 859.5,200.5C 856.833,200.5 854.167,200.5 851.5,200.5C 851.5,189.5 851.5,178.5 851.5,167.5C 854.167,167.5 856.833,167.5 859.5,167.5C 859.351,168.552 859.517,169.552 860,170.5C 862.876,169.052 865.709,167.719 868.5,166.5 Z"/></g>
<g><path style="opacity:1" fill="#f2f2f2" d="M 947.5,166.5 C 961.875,165.542 968.542,172.208 967.5,186.5C 959.5,186.5 951.5,186.5 943.5,186.5C 943.544,190.09 945.211,192.59 948.5,194C 953.861,194.609 959.195,194.442 964.5,193.5C 965.456,199.028 963.123,201.528 957.5,201C 939.609,202.427 932.443,194.261 936,176.5C 938.245,171.157 942.078,167.824 947.5,166.5 Z"/></g>
<g><path style="opacity:1" fill="#f0f0f0" d="M 968.5,167.5 C 971.5,167.5 974.5,167.5 977.5,167.5C 979.576,175.061 982.242,182.394 985.5,189.5C 988.765,182.37 991.432,175.037 993.5,167.5C 996.518,167.335 999.518,167.502 1002.5,168C 998.22,178.333 994.22,188.833 990.5,199.5C 987.167,200.833 983.833,200.833 980.5,199.5C 976.026,189.02 972.026,178.354 968.5,167.5 Z"/></g>
<g><path style="opacity:1" fill="#f2f2f2" d="M 1016.5,166.5 C 1030.87,165.542 1037.54,172.208 1036.5,186.5C 1028.5,186.5 1020.5,186.5 1012.5,186.5C 1012.54,190.09 1014.21,192.59 1017.5,194C 1022.86,194.609 1028.19,194.442 1033.5,193.5C 1034.46,199.028 1032.12,201.528 1026.5,201C 1008.61,202.427 1001.44,194.261 1005,176.5C 1007.24,171.157 1011.08,167.824 1016.5,166.5 Z"/></g>
<g><path style="opacity:1" fill="#f1f1f1" d="M 1072.5,166.5 C 1091.21,165.707 1098.38,174.374 1094,192.5C 1091.45,197.714 1087.29,200.547 1081.5,201C 1067.69,203.118 1060.69,197.285 1060.5,183.5C 1060.35,174.772 1064.35,169.106 1072.5,166.5 Z"/></g>
<g><path style="opacity:1" fill="#f0f0f0" d="M 1111.5,199.5 C 1111.44,198.957 1111.11,198.624 1110.5,198.5C 1109.5,204.128 1109.17,209.794 1109.5,215.5C 1106.83,215.5 1104.17,215.5 1101.5,215.5C 1101.5,199.5 1101.5,183.5 1101.5,167.5C 1104.79,167.073 1107.79,167.74 1110.5,169.5C 1121.01,163.838 1129.18,166.171 1135,176.5C 1136.61,184.251 1135.11,191.251 1130.5,197.5C 1124.54,201.871 1118.2,202.537 1111.5,199.5 Z"/></g>
<g><path style="opacity:1" fill="#f2f2f2" d="M 1152.5,166.5 C 1166.91,165.573 1173.57,172.239 1172.5,186.5C 1164.47,186.169 1156.47,186.502 1148.5,187.5C 1148.86,190.692 1150.53,192.859 1153.5,194C 1159.19,194.626 1164.86,194.459 1170.5,193.5C 1170.5,195.5 1170.5,197.5 1170.5,199.5C 1147.83,205.645 1138.33,197.311 1142,174.5C 1144.54,170.49 1148.04,167.824 1152.5,166.5 Z"/></g>
<g><path style="opacity:1" fill="#f6f6f6" d="M 1195.5,166.5 C 1196.5,166.5 1197.5,166.5 1198.5,166.5C 1198.5,168.833 1198.5,171.167 1198.5,173.5C 1194.56,173.478 1190.9,174.478 1187.5,176.5C 1186.5,184.472 1186.17,192.472 1186.5,200.5C 1183.83,200.5 1181.17,200.5 1178.5,200.5C 1178.5,189.5 1178.5,178.5 1178.5,167.5C 1181.17,167.5 1183.83,167.5 1186.5,167.5C 1186.35,168.552 1186.52,169.552 1187,170.5C 1189.97,169.263 1192.8,167.93 1195.5,166.5 Z"/></g>
<g><path style="opacity:1" fill="#272727" d="M 823.5,173.5 C 827.839,172.846 831.673,173.846 835,176.5C 836.363,180.761 836.696,185.095 836,189.5C 833.103,194.155 828.937,195.655 823.5,194C 821.448,193.07 819.948,191.57 819,189.5C 818.333,186.167 818.333,182.833 819,179.5C 819.599,176.746 821.099,174.746 823.5,173.5 Z"/></g>
<g><path style="opacity:1" fill="#242424" d="M 946.5,173.5 C 949.85,173.335 953.183,173.502 956.5,174C 959.041,175.848 960.041,178.348 959.5,181.5C 954.167,181.5 948.833,181.5 943.5,181.5C 943.016,178.212 944.016,175.545 946.5,173.5 Z"/></g>
<g><path style="opacity:1" fill="#242424" d="M 1015.5,173.5 C 1018.85,173.335 1022.18,173.502 1025.5,174C 1028.04,175.848 1029.04,178.348 1028.5,181.5C 1023.17,181.5 1017.83,181.5 1012.5,181.5C 1012.02,178.212 1013.02,175.545 1015.5,173.5 Z"/></g>
<g><path style="opacity:1" fill="#252525" d="M 1075.5,173.5 C 1086.1,173.822 1089.6,179.155 1086,189.5C 1082.6,194.452 1078.1,195.618 1072.5,193C 1068.7,188.909 1067.53,184.076 1069,178.5C 1070.6,175.965 1072.77,174.298 1075.5,173.5 Z"/></g>
<g><path style="opacity:1" fill="#242424" d="M 1113.5,173.5 C 1116.52,173.335 1119.52,173.502 1122.5,174C 1123.93,174.465 1125.1,175.299 1126,176.5C 1126.67,181.167 1126.67,185.833 1126,190.5C 1121.52,194.935 1116.52,195.602 1111,192.5C 1110.17,186.804 1110.34,181.137 1111.5,175.5C 1112.52,175.145 1113.19,174.478 1113.5,173.5 Z"/></g>
<g><path style="opacity:1" fill="#252525" d="M 1151.5,173.5 C 1155.64,173.146 1159.64,173.646 1163.5,175C 1164.42,177.041 1164.76,179.208 1164.5,181.5C 1159.17,181.5 1153.83,181.5 1148.5,181.5C 1148.02,178.212 1149.02,175.545 1151.5,173.5 Z"/></g>
<g><path style="opacity:1" fill="#a8a8a8" d="M 782.5,171.5 C 783.268,172.263 783.768,173.263 784,174.5C 784.824,183.343 784.657,192.01 783.5,200.5C 783.725,190.801 783.392,181.134 782.5,171.5 Z"/></g>
<g><path style="opacity:1" fill="#949494" d="M 1111.5,199.5 C 1110.83,204.833 1110.17,210.167 1109.5,215.5C 1109.17,209.794 1109.5,204.128 1110.5,198.5C 1111.11,198.624 1111.44,198.957 1111.5,199.5 Z"/></g>
<g><path style="opacity:1" fill="#f0f0f0" d="M 1151.5,341.5 C 1153.53,341.338 1155.53,341.505 1157.5,342C 1159.56,343.493 1159.89,345.326 1158.5,347.5C 1153.55,345.439 1151.55,347.106 1152.5,352.5C 1154.5,352.5 1156.5,352.5 1158.5,352.5C 1158.5,354.167 1158.5,355.833 1158.5,357.5C 1156.5,357.5 1154.5,357.5 1152.5,357.5C 1152.5,363.833 1152.5,370.167 1152.5,376.5C 1150.5,376.5 1148.5,376.5 1146.5,376.5C 1146.5,370.167 1146.5,363.833 1146.5,357.5C 1145.17,357.5 1143.83,357.5 1142.5,357.5C 1142.5,355.833 1142.5,354.167 1142.5,352.5C 1143.83,352.5 1145.17,352.5 1146.5,352.5C 1145.39,347.428 1147.05,343.761 1151.5,341.5 Z"/></g>
<g><path style="opacity:1" fill="#eeeeee" d="M 699.5,343.5 C 701.5,343.5 703.5,343.5 705.5,343.5C 705.18,346.898 705.513,350.232 706.5,353.5C 720.287,349.78 726.121,355.113 724,369.5C 720.231,377.294 714.398,379.294 706.5,375.5C 704.253,376.374 701.92,376.708 699.5,376.5C 699.5,365.5 699.5,354.5 699.5,343.5 Z"/></g>
<g><path style="opacity:1" fill="#efefef" d="M 759.5,343.5 C 761.833,343.5 764.167,343.5 766.5,343.5C 766.5,345.167 766.5,346.833 766.5,348.5C 764.167,348.5 761.833,348.5 759.5,348.5C 759.5,346.833 759.5,345.167 759.5,343.5 Z"/></g>
<g><path style="opacity:1" fill="#e3e3e3" d="M 1189.5,342.5 C 1191.83,342.5 1194.17,342.5 1196.5,342.5C 1196.5,352.5 1196.5,362.5 1196.5,372.5C 1197.83,372.5 1199.17,372.5 1200.5,372.5C 1200.53,377.213 1198.2,378.713 1193.5,377C 1192.07,376.535 1190.9,375.701 1190,374.5C 1189.5,363.839 1189.33,353.172 1189.5,342.5 Z"/></g>
<g><path style="opacity:1" fill="#f5f5f5" d="M 1204.5,343.5 C 1206.5,343.5 1208.5,343.5 1210.5,343.5C 1210.5,345.167 1210.5,346.833 1210.5,348.5C 1208.5,348.5 1206.5,348.5 1204.5,348.5C 1204.5,346.833 1204.5,345.167 1204.5,343.5 Z"/></g>
<g><path style="opacity:1" fill="#f1f1f1" d="M 638.5,344.5 C 644.842,344.334 651.175,344.5 657.5,345C 664.215,347.92 667.215,353.087 666.5,360.5C 667.026,367.788 664.026,372.955 657.5,376C 651.175,376.5 644.842,376.666 638.5,376.5C 638.5,365.833 638.5,355.167 638.5,344.5 Z"/></g>
<g><path style="opacity:1" fill="#f1f1f1" d="M 907.5,376.5 C 907.5,371.833 907.5,367.167 907.5,362.5C 902.167,362.5 896.833,362.5 891.5,362.5C 891.5,367.167 891.5,371.833 891.5,376.5C 889.5,376.5 887.5,376.5 885.5,376.5C 885.5,365.833 885.5,355.167 885.5,344.5C 887.833,344.5 890.167,344.5 892.5,344.5C 892.5,349.167 892.5,353.833 892.5,358.5C 897.167,358.5 901.833,358.5 906.5,358.5C 906.5,353.833 906.5,349.167 906.5,344.5C 908.5,344.5 910.5,344.5 912.5,344.5C 912.5,355.167 912.5,365.833 912.5,376.5C 910.833,376.5 909.167,376.5 907.5,376.5 Z"/></g>
<g><path style="opacity:1" fill="#f4f4f4" d="M 1050.5,344.5 C 1056.84,344.334 1063.18,344.5 1069.5,345C 1071.62,346.122 1073.46,347.622 1075,349.5C 1075.67,353.167 1075.67,356.833 1075,360.5C 1073.52,363.663 1071.02,365.496 1067.5,366C 1063.85,366.499 1060.18,366.665 1056.5,366.5C 1056.5,369.833 1056.5,373.167 1056.5,376.5C 1054.5,376.5 1052.5,376.5 1050.5,376.5C 1050.5,365.833 1050.5,355.167 1050.5,344.5 Z"/></g>
<g><path style="opacity:1" fill="#ededed" d="M 1130.5,345.5 C 1131.83,345.5 1133.17,345.5 1134.5,345.5C 1134.5,347.833 1134.5,350.167 1134.5,352.5C 1136.5,352.5 1138.5,352.5 1140.5,352.5C 1140.5,354.167 1140.5,355.833 1140.5,357.5C 1138.5,357.5 1136.5,357.5 1134.5,357.5C 1134.33,362.179 1134.5,366.845 1135,371.5C 1137.08,372.333 1139.25,372.333 1141.5,371.5C 1141.86,373.766 1141.19,375.599 1139.5,377C 1136.13,377.744 1132.96,377.244 1130,375.5C 1128.59,369.621 1128.09,363.621 1128.5,357.5C 1127.17,357.5 1125.83,357.5 1124.5,357.5C 1124.5,355.833 1124.5,354.167 1124.5,352.5C 1125.83,352.5 1127.17,352.5 1128.5,352.5C 1128.18,349.789 1128.85,347.456 1130.5,345.5 Z"/></g>
<g><path style="opacity:1" fill="#232323" d="M 644.5,349.5 C 648.967,349.133 653.3,349.633 657.5,351C 660.167,357.333 660.167,363.667 657.5,370C 653.3,371.367 648.967,371.867 644.5,371.5C 644.5,364.167 644.5,356.833 644.5,349.5 Z"/></g>
<g><path style="opacity:1" fill="#232323" d="M 1056.5,349.5 C 1060.18,349.335 1063.85,349.501 1067.5,350C 1070.17,353.333 1070.17,356.667 1067.5,360C 1063.97,361.337 1060.31,361.837 1056.5,361.5C 1056.5,357.5 1056.5,353.5 1056.5,349.5 Z"/></g>
<g><path style="opacity:1" fill="#eaeaea" d="M 670.5,352.5 C 672.5,352.5 674.5,352.5 676.5,352.5C 676.334,358.176 676.501,363.843 677,369.5C 679.904,372.903 683.237,373.236 687,370.5C 687.499,364.509 687.666,358.509 687.5,352.5C 689.833,352.5 692.167,352.5 694.5,352.5C 694.5,360.5 694.5,368.5 694.5,376.5C 691.921,376.917 689.754,376.25 688,374.5C 681.17,379.307 675.503,378.307 671,371.5C 670.5,365.175 670.334,358.842 670.5,352.5 Z"/></g>
<g><path style="opacity:1" fill="#eaeaea" d="M 728.5,352.5 C 730.5,352.5 732.5,352.5 734.5,352.5C 734.334,358.176 734.501,363.843 735,369.5C 737.904,372.903 741.237,373.236 745,370.5C 745.499,364.509 745.666,358.509 745.5,352.5C 747.833,352.5 750.167,352.5 752.5,352.5C 752.5,360.5 752.5,368.5 752.5,376.5C 749.921,376.917 747.754,376.25 746,374.5C 739.17,379.307 733.503,378.307 729,371.5C 728.5,365.175 728.334,358.842 728.5,352.5 Z"/></g>
<g><path style="opacity:1" fill="#efefef" d="M 756.5,352.5 C 759.833,352.5 763.167,352.5 766.5,352.5C 766.5,360.5 766.5,368.5 766.5,376.5C 764.5,376.5 762.5,376.5 760.5,376.5C 760.5,370.167 760.5,363.833 760.5,357.5C 759.167,357.5 757.833,357.5 756.5,357.5C 756.5,355.833 756.5,354.167 756.5,352.5 Z"/></g>
<g><path style="opacity:1" fill="#ebebeb" d="M 776.5,351.5 C 780.534,351.505 784.534,351.838 788.5,352.5C 788.662,354.527 788.495,356.527 788,358.5C 785.583,357.648 783.083,356.981 780.5,356.5C 778.734,356.434 777.734,357.268 777.5,359C 781.652,361.498 785.819,363.998 790,366.5C 791.45,371.768 789.617,375.268 784.5,377C 780.129,377.629 775.796,377.463 771.5,376.5C 771.5,374.833 771.5,373.167 771.5,371.5C 775.5,372.833 779.5,372.833 783.5,371.5C 783.67,370.178 783.337,369.011 782.5,368C 777.987,366.948 774.153,364.782 771,361.5C 770.333,359.5 770.333,357.5 771,355.5C 772.812,354.023 774.645,352.69 776.5,351.5 Z"/></g>
<g><path style="opacity:1" fill="#ebebeb" d="M 798.5,351.5 C 802.534,351.505 806.534,351.838 810.5,352.5C 810.662,354.527 810.495,356.527 810,358.5C 807.583,357.648 805.083,356.981 802.5,356.5C 800.734,356.434 799.734,357.268 799.5,359C 803.652,361.498 807.819,363.998 812,366.5C 813.45,371.768 811.617,375.268 806.5,377C 802.129,377.629 797.796,377.463 793.5,376.5C 793.5,374.833 793.5,373.167 793.5,371.5C 797.5,372.833 801.5,372.833 805.5,371.5C 805.67,370.178 805.337,369.011 804.5,368C 799.987,366.948 796.153,364.782 793,361.5C 792.333,359.5 792.333,357.5 793,355.5C 794.812,354.023 796.645,352.69 798.5,351.5 Z"/></g>
<g><path style="opacity:1" fill="#efefef" d="M 823.5,351.5 C 837.395,350.561 842.895,356.894 840,370.5C 834.58,377.926 827.746,379.426 819.5,375C 817.951,373.786 816.785,372.286 816,370.5C 813.359,361.868 815.859,355.535 823.5,351.5 Z"/></g>
<g><path style="opacity:1" fill="#f3f3f3" d="M 856.5,351.5 C 861.039,350.957 864.873,352.29 868,355.5C 868.5,362.492 868.666,369.492 868.5,376.5C 866.5,376.5 864.5,376.5 862.5,376.5C 862.666,370.491 862.499,364.491 862,358.5C 858.944,355.994 855.777,355.994 852.5,358.5C 851.504,364.463 851.171,370.463 851.5,376.5C 849.5,376.5 847.5,376.5 845.5,376.5C 845.5,368.5 845.5,360.5 845.5,352.5C 847.92,352.292 850.253,352.626 852.5,353.5C 854.026,353.006 855.359,352.339 856.5,351.5 Z"/></g>
<g><path style="opacity:1" fill="#f2f2f2" d="M 918.5,352.5 C 920.5,352.5 922.5,352.5 924.5,352.5C 924.13,358.925 924.63,365.258 926,371.5C 928.957,372.814 931.79,372.48 934.5,370.5C 935.496,364.537 935.829,358.537 935.5,352.5C 937.5,352.5 939.5,352.5 941.5,352.5C 941.5,360.5 941.5,368.5 941.5,376.5C 939.179,376.771 937.179,376.104 935.5,374.5C 929.317,378.995 923.817,378.329 919,372.5C 918.5,365.842 918.334,359.175 918.5,352.5 Z"/></g>
<g><path style="opacity:1" fill="#f0f0f0" d="M 953.5,351.5 C 959.484,352.074 965.484,352.407 971.5,352.5C 971.5,353.833 971.5,355.167 971.5,356.5C 970.127,356.343 968.793,356.51 967.5,357C 969.238,360.844 968.571,364.177 965.5,367C 961.954,368.174 958.287,368.84 954.5,369C 953.027,369.71 952.36,370.876 952.5,372.5C 956.846,372.334 961.179,372.501 965.5,373C 969.213,374.691 970.379,377.525 969,381.5C 967.681,383.487 965.848,384.654 963.5,385C 958.446,385.781 953.446,385.614 948.5,384.5C 947.167,382.833 947.167,381.167 948.5,379.5C 953.111,380.61 957.778,380.777 962.5,380C 962.957,379.586 963.291,379.086 963.5,378.5C 959.204,377.672 954.871,377.172 950.5,377C 945.649,374.257 945.315,371.09 949.5,367.5C 944.539,360.428 945.872,355.095 953.5,351.5 Z"/></g>
<g><path style="opacity:1" fill="#eaeaea" d="M 982.5,351.5 C 996.536,351.364 1001.7,358.031 998,371.5C 991.258,378.676 983.925,379.343 976,373.5C 972.3,366.669 972.8,360.169 977.5,354C 979.315,353.243 980.981,352.41 982.5,351.5 Z"/></g>
<g><path style="opacity:1" fill="#eaeaea" d="M 1087.5,351.5 C 1101.54,351.364 1106.7,358.031 1103,371.5C 1096.26,378.676 1088.93,379.343 1081,373.5C 1077.3,366.669 1077.8,360.169 1082.5,354C 1084.31,353.243 1085.98,352.41 1087.5,351.5 Z"/></g>
<g><path style="opacity:1" fill="#f1f1f1" d="M 1121.5,351.5 C 1123.26,352.552 1123.92,354.219 1123.5,356.5C 1120.42,356.804 1117.59,357.804 1115,359.5C 1114.5,365.157 1114.33,370.824 1114.5,376.5C 1112.5,376.5 1110.5,376.5 1108.5,376.5C 1108.5,368.5 1108.5,360.5 1108.5,352.5C 1111.08,352.083 1113.25,352.75 1115,354.5C 1117.29,353.578 1119.46,352.578 1121.5,351.5 Z"/></g>
<g><path style="opacity:1" fill="#eaeaea" d="M 1168.5,351.5 C 1181.84,350.34 1187.34,356.34 1185,369.5C 1179.38,378.046 1172.05,379.713 1163,374.5C 1156.87,364.559 1158.7,356.893 1168.5,351.5 Z"/></g>
<g><path style="opacity:1" fill="#f4f4f4" d="M 1201.5,352.5 C 1204.5,352.5 1207.5,352.5 1210.5,352.5C 1210.5,360.5 1210.5,368.5 1210.5,376.5C 1208.5,376.5 1206.5,376.5 1204.5,376.5C 1204.5,370.167 1204.5,363.833 1204.5,357.5C 1203.5,357.5 1202.5,357.5 1201.5,357.5C 1201.5,355.833 1201.5,354.167 1201.5,352.5 Z"/></g>
<g><path style="opacity:1" fill="#efefef" d="M 1223.5,351.5 C 1237.4,350.561 1242.9,356.894 1240,370.5C 1234.58,377.926 1227.75,379.426 1219.5,375C 1217.95,373.786 1216.78,372.286 1216,370.5C 1213.36,361.868 1215.86,355.535 1223.5,351.5 Z"/></g>
<g><path style="opacity:1" fill="#2a2a2a" d="M 954.5,355.5 C 960.986,353.835 963.819,356.168 963,362.5C 960.683,365.097 957.85,365.93 954.5,365C 951.871,361.793 951.871,358.626 954.5,355.5 Z"/></g>
<g><path style="opacity:1" fill="#2a2a2a" d="M 827.5,356.5 C 832.445,356.611 834.779,359.111 834.5,364C 833.986,372.007 830.153,374.174 823,370.5C 821.496,366.961 821.163,363.295 822,359.5C 823.719,358.131 825.552,357.131 827.5,356.5 Z"/></g>
<g><path style="opacity:1" fill="#2a2a2a" d="M 1227.5,356.5 C 1232.45,356.611 1234.78,359.111 1234.5,364C 1233.99,372.007 1230.15,374.174 1223,370.5C 1221.5,366.961 1221.16,363.295 1222,359.5C 1223.72,358.131 1225.55,357.131 1227.5,356.5 Z"/></g>
<g><path style="opacity:1" fill="#2b2b2b" d="M 708.5,356.5 C 716.819,356.344 719.652,360.344 717,368.5C 714.217,372.823 710.717,373.49 706.5,370.5C 705.34,366.541 705.173,362.541 706,358.5C 706.995,357.934 707.828,357.267 708.5,356.5 Z"/></g>
<g><path style="opacity:1" fill="#252525" d="M 983.5,356.5 C 991.898,356.412 994.732,360.412 992,368.5C 988.684,373.083 985.017,373.416 981,369.5C 980.333,366.167 980.333,362.833 981,359.5C 981.698,358.309 982.531,357.309 983.5,356.5 Z"/></g>
<g><path style="opacity:1" fill="#252525" d="M 1088.5,356.5 C 1096.9,356.412 1099.73,360.412 1097,368.5C 1093.68,373.083 1090.02,373.416 1086,369.5C 1085.33,366.167 1085.33,362.833 1086,359.5C 1086.7,358.309 1087.53,357.309 1088.5,356.5 Z"/></g>
<g><path style="opacity:1" fill="#272727" d="M 1169.5,356.5 C 1178.13,356.628 1180.96,360.961 1178,369.5C 1174.33,373.5 1170.67,373.5 1167,369.5C 1165.74,364.617 1166.58,360.284 1169.5,356.5 Z"/></g>
<g><path style="opacity:1" fill="#f3f3f3" d="M 1014.5,360.5 C 1021.17,360.5 1027.83,360.5 1034.5,360.5C 1034.5,362.167 1034.5,363.833 1034.5,365.5C 1027.83,365.5 1021.17,365.5 1014.5,365.5C 1014.5,363.833 1014.5,362.167 1014.5,360.5 Z"/></g>
<g><path style="opacity:1" fill="#bcbcbc" d="M 907.5,376.5 C 906.515,372.366 906.182,368.032 906.5,363.5C 901.833,363.5 897.167,363.5 892.5,363.5C 892.818,368.032 892.485,372.366 891.5,376.5C 891.5,371.833 891.5,367.167 891.5,362.5C 896.833,362.5 902.167,362.5 907.5,362.5C 907.5,367.167 907.5,371.833 907.5,376.5 Z"/></g>
<g><path style="opacity:1" fill="#4a4a4a" d="M 1589.5,855.5 C 1156.17,855.5 722.833,855.5 289.5,855.5C 289.333,741.5 289.5,627.5 290,513.5C 293.833,497.667 303.667,487.833 319.5,484C 525.833,483.833 732.167,483.667 938.5,483.5C 1144.83,483.667 1351.17,483.833 1557.5,484C 1574.33,487.151 1584.83,496.984 1589,513.5C 1589.5,627.5 1589.67,741.5 1589.5,855.5 Z"/></g>
<g><path style="opacity:1" fill="#f8f8f8" d="M 1008.5,579.5 C 1012.17,579.5 1015.83,579.5 1019.5,579.5C 1019.5,581.833 1019.5,584.167 1019.5,586.5C 1015.83,586.5 1012.17,586.5 1008.5,586.5C 1008.5,584.167 1008.5,581.833 1008.5,579.5 Z"/></g>
<g><path style="opacity:1" fill="#f8f8f8" d="M 862.5,579.5 C 866.167,579.5 869.833,579.5 873.5,579.5C 873.5,581.833 873.5,584.167 873.5,586.5C 869.833,586.5 866.167,586.5 862.5,586.5C 862.5,584.167 862.5,581.833 862.5,579.5 Z"/></g>
<g><path style="opacity:1" fill="#f8f8f8" d="M 943.5,579.5 C 947.167,579.5 950.833,579.5 954.5,579.5C 954.5,581.833 954.5,584.167 954.5,586.5C 950.833,586.5 947.167,586.5 943.5,586.5C 943.5,584.167 943.5,581.833 943.5,579.5 Z"/></g>
<g><path style="opacity:1" fill="#f5f5f5" d="M 806.5,580.5 C 824.916,579.412 831.749,587.745 827,605.5C 824.825,610.516 820.992,613.516 815.5,614.5C 816.748,616.69 818.414,617.023 820.5,615.5C 821.474,617.743 821.808,620.076 821.5,622.5C 814.008,624.257 809.008,621.59 806.5,614.5C 797.84,612.167 793.84,606.5 794.5,597.5C 794.35,588.772 798.35,583.106 806.5,580.5 Z"/></g>
<g><path style="opacity:1" fill="#f5f5f5" d="M 1065.5,580.5 C 1072.49,579.44 1078.32,581.44 1083,586.5C 1083.67,589.167 1083.67,591.833 1083,594.5C 1079.45,597.194 1076.95,600.528 1075.5,604.5C 1072.17,604.5 1068.83,604.5 1065.5,604.5C 1065.73,599.416 1068.23,595.749 1073,593.5C 1073.67,592.5 1073.67,591.5 1073,590.5C 1068.88,589.341 1064.71,589.341 1060.5,590.5C 1060.19,587.753 1060.52,585.086 1061.5,582.5C 1063.03,582.006 1064.36,581.339 1065.5,580.5 Z"/></g>
<g><path style="opacity:1" fill="#4c4c4c" d="M 807.5,589.5 C 817.158,588.666 820.324,593 817,602.5C 816.626,603.416 816.126,604.25 815.5,605C 807.991,607.488 804.657,604.821 805.5,597C 805.303,594.176 805.969,591.676 807.5,589.5 Z"/></g>
<g><path style="opacity:1" fill="#f8f8f8" d="M 830.5,589.5 C 833.833,589.5 837.167,589.5 840.5,589.5C 840.334,594.844 840.501,600.177 841,605.5C 843,606.833 845,606.833 847,605.5C 847.499,600.177 847.666,594.844 847.5,589.5C 850.833,589.5 854.167,589.5 857.5,589.5C 857.5,597.5 857.5,605.5 857.5,613.5C 851.277,612.587 845.277,612.921 839.5,614.5C 835.004,614.169 832.17,611.836 831,607.5C 830.501,601.509 830.334,595.509 830.5,589.5 Z"/></g>
<g><path style="opacity:1" fill="#f9f9f9" d="M 860.5,589.5 C 864.833,589.5 869.167,589.5 873.5,589.5C 873.5,597.5 873.5,605.5 873.5,613.5C 870.167,613.5 866.833,613.5 863.5,613.5C 863.5,607.833 863.5,602.167 863.5,596.5C 862.5,596.5 861.5,596.5 860.5,596.5C 860.5,594.167 860.5,591.833 860.5,589.5 Z"/></g>
<g><path style="opacity:1" fill="#f1f1f1" d="M 893.5,588.5 C 898.193,588.54 902.859,588.873 907.5,589.5C 907.664,592.187 907.497,594.854 907,597.5C 903.927,596.383 900.76,596.216 897.5,597C 901.497,598.166 905.163,599.999 908.5,602.5C 910.243,606.221 909.576,609.388 906.5,612C 900.354,614.981 894.021,615.315 887.5,613C 886.565,610.619 886.232,608.119 886.5,605.5C 890.463,606.44 894.463,606.607 898.5,606C 894.131,604.733 890.297,602.567 887,599.5C 886.025,593.975 888.192,590.309 893.5,588.5 Z"/></g>
<g><path style="opacity:1" fill="#f4f4f4" d="M 911.5,589.5 C 915.167,589.5 918.833,589.5 922.5,589.5C 922.5,595.167 922.5,600.833 922.5,606.5C 924.467,606.739 926.301,606.406 928,605.5C 928.499,600.177 928.666,594.844 928.5,589.5C 931.833,589.5 935.167,589.5 938.5,589.5C 938.5,597.5 938.5,605.5 938.5,613.5C 932.655,612.537 926.989,612.871 921.5,614.5C 916.963,614.606 913.797,612.606 912,608.5C 911.5,602.175 911.334,595.842 911.5,589.5 Z"/></g>
<g><path style="opacity:1" fill="#f9f9f9" d="M 941.5,589.5 C 945.833,589.5 950.167,589.5 954.5,589.5C 954.5,597.5 954.5,605.5 954.5,613.5C 951.167,613.5 947.833,613.5 944.5,613.5C 944.5,607.833 944.5,602.167 944.5,596.5C 943.5,596.5 942.5,596.5 941.5,596.5C 941.5,594.167 941.5,591.833 941.5,589.5 Z"/></g>
<g><path style="opacity:1" fill="#f1f1f1" d="M 964.5,588.5 C 969.193,588.54 973.859,588.873 978.5,589.5C 978.664,592.187 978.497,594.854 978,597.5C 974.927,596.383 971.76,596.216 968.5,597C 972.497,598.166 976.163,599.999 979.5,602.5C 981.243,606.221 980.576,609.388 977.5,612C 971.354,614.981 965.021,615.315 958.5,613C 957.565,610.619 957.232,608.119 957.5,605.5C 961.463,606.44 965.463,606.607 969.5,606C 965.131,604.733 961.297,602.567 958,599.5C 957.025,593.975 959.192,590.309 964.5,588.5 Z"/></g>
<g><path style="opacity:1" fill="#f9f9f9" d="M 1006.5,589.5 C 1010.83,589.5 1015.17,589.5 1019.5,589.5C 1019.67,599.839 1019.5,610.172 1019,620.5C 1014.91,624.305 1010.08,625.472 1004.5,624C 1003.58,621.959 1003.24,619.792 1003.5,617.5C 1005.47,617.739 1007.3,617.406 1009,616.5C 1009.5,609.842 1009.67,603.175 1009.5,596.5C 1008.5,596.5 1007.5,596.5 1006.5,596.5C 1006.5,594.167 1006.5,591.833 1006.5,589.5 Z"/></g>
<g><path style="opacity:1" fill="#f5f5f5" d="M 1031.5,588.5 C 1043.52,587.313 1049.19,592.646 1048.5,604.5C 1043.13,604.172 1037.79,604.505 1032.5,605.5C 1033.03,606.192 1033.69,606.692 1034.5,607C 1038.49,607.499 1042.49,607.666 1046.5,607.5C 1046.74,609.467 1046.41,611.301 1045.5,613C 1037.3,616.037 1030.13,614.537 1024,608.5C 1020.17,599.199 1022.67,592.533 1031.5,588.5 Z"/></g>
<g><path style="opacity:1" fill="#595959" d="M 1032.5,595.5 C 1034.53,595.338 1036.53,595.505 1038.5,596C 1039.34,597.011 1039.67,598.178 1039.5,599.5C 1036.83,599.5 1034.17,599.5 1031.5,599.5C 1031.43,598.041 1031.77,596.708 1032.5,595.5 Z"/></g>
<g><path style="opacity:1" fill="#fbfbfb" d="M 981.5,595.5 C 988.5,595.5 995.5,595.5 1002.5,595.5C 1002.5,597.833 1002.5,600.167 1002.5,602.5C 995.5,602.5 988.5,602.5 981.5,602.5C 981.5,600.167 981.5,597.833 981.5,595.5 Z"/></g>
<g><path style="opacity:1" fill="#f7f7f7" d="M 1064.5,606.5 C 1068.17,606.5 1071.83,606.5 1075.5,606.5C 1075.5,608.833 1075.5,611.167 1075.5,613.5C 1071.83,613.5 1068.17,613.5 1064.5,613.5C 1064.5,611.167 1064.5,608.833 1064.5,606.5 Z"/></g>
<g><path style="opacity:1" fill="#fcfcfc" d="M 793.5,616.5 C 796.5,616.5 799.5,616.5 802.5,616.5C 802.5,618.167 802.5,619.833 802.5,621.5C 799.5,621.5 796.5,621.5 793.5,621.5C 793.5,619.833 793.5,618.167 793.5,616.5 Z"/></g>
<g><path style="opacity:1" fill="#fefffe" d="M 825.5,616.5 C 883.167,616.5 940.833,616.5 998.5,616.5C 998.5,618.167 998.5,619.833 998.5,621.5C 940.833,621.5 883.167,621.5 825.5,621.5C 825.5,619.833 825.5,618.167 825.5,616.5 Z"/></g>
<g><path style="opacity:1" fill="#fefefe" d="M 1024.5,616.5 C 1044.5,616.5 1064.5,616.5 1084.5,616.5C 1084.5,618.167 1084.5,619.833 1084.5,621.5C 1064.5,621.5 1044.5,621.5 1024.5,621.5C 1024.5,619.833 1024.5,618.167 1024.5,616.5 Z"/></g>
<g><path style="opacity:1" fill="#eff0ea" d="M 818.5,699.5 C 820.288,699.215 821.955,699.548 823.5,700.5C 822.741,703.406 821.074,705.406 818.5,706.5C 817.833,706.167 817.167,705.833 816.5,705.5C 818.086,703.827 818.753,701.827 818.5,699.5 Z"/></g>
<g><path style="opacity:1" fill="#e7e8e8" d="M 1275.5,699.5 C 1277.17,699.5 1278.83,699.5 1280.5,699.5C 1280.39,701.783 1279.56,703.783 1278,705.5C 1276.51,706.747 1275.01,706.747 1273.5,705.5C 1274.37,703.55 1275.04,701.55 1275.5,699.5 Z"/></g>
<g><path style="opacity:1" fill="#f3ece1" d="M 523.5,700.5 C 525.5,700.5 527.5,700.5 529.5,700.5C 529.5,701.833 529.5,703.167 529.5,704.5C 527.5,704.5 525.5,704.5 523.5,704.5C 523.5,703.167 523.5,701.833 523.5,700.5 Z"/></g>
<g><path style="opacity:1" fill="#f3ece1" d="M 766.5,700.5 C 768.5,700.5 770.5,700.5 772.5,700.5C 772.5,701.833 772.5,703.167 772.5,704.5C 770.5,704.5 768.5,704.5 766.5,704.5C 766.5,703.167 766.5,701.833 766.5,700.5 Z"/></g>
<g><path style="opacity:1" fill="#f5f6f3" d="M 800.5,700.5 C 802.167,700.5 803.833,700.5 805.5,700.5C 805.5,709.833 805.5,719.167 805.5,728.5C 800.25,728.128 794.917,727.961 789.5,728C 785.695,723.909 784.528,719.076 786,713.5C 789.35,708.591 793.85,707.258 799.5,709.5C 800.484,706.572 800.817,703.572 800.5,700.5 Z"/></g>
<g><path style="opacity:1" fill="#f9f7f0" d="M 873.5,700.5 C 875.167,700.5 876.833,700.5 878.5,700.5C 878.5,708.5 878.5,716.5 878.5,724.5C 879.5,724.5 880.5,724.5 881.5,724.5C 881.5,725.833 881.5,727.167 881.5,728.5C 878.635,728.945 876.135,728.278 874,726.5C 873.5,717.84 873.334,709.173 873.5,700.5 Z"/></g>
<g><path style="opacity:1" fill="#ecebe6" d="M 1334.5,700.5 C 1336.5,700.5 1338.5,700.5 1340.5,700.5C 1340.5,709.833 1340.5,719.167 1340.5,728.5C 1338.23,728.859 1336.4,728.192 1335,726.5C 1331.74,728.429 1328.24,728.929 1324.5,728C 1319.41,723.839 1318.24,718.672 1321,712.5C 1324.65,708.584 1328.99,707.584 1334,709.5C 1334.5,706.518 1334.66,703.518 1334.5,700.5 Z"/></g>
<g><path style="opacity:1" fill="#eae9e3" d="M 437.5,701.5 C 439.5,701.5 441.5,701.5 443.5,701.5C 443.935,709.611 443.435,717.611 442,725.5C 441.097,726.701 439.931,727.535 438.5,728C 435.183,728.498 431.85,728.665 428.5,728.5C 428.34,726.801 428.506,725.134 429,723.5C 431.466,724.788 433.966,724.788 436.5,723.5C 437.497,716.197 437.831,708.863 437.5,701.5 Z"/></g>
<g><path style="opacity:1" fill="#f3f2ef" d="M 1088.5,701.5 C 1092.18,701.335 1095.85,701.501 1099.5,702C 1105.07,705.514 1105.9,710.014 1102,715.5C 1099.14,718.36 1096.31,721.194 1093.5,724C 1097.15,724.499 1100.82,724.665 1104.5,724.5C 1104.5,725.833 1104.5,727.167 1104.5,728.5C 1098.5,728.5 1092.5,728.5 1086.5,728.5C 1086.37,726.345 1086.87,724.345 1088,722.5C 1091.52,719.734 1094.86,716.734 1098,713.5C 1099.14,705.797 1095.97,703.464 1088.5,706.5C 1087.33,704.833 1087.33,703.166 1088.5,701.5 Z"/></g>
<g><path style="opacity:1" fill="#f4f5f5" d="M 1375.5,701.5 C 1381.51,701.334 1387.51,701.501 1393.5,702C 1397.09,705.867 1397.42,710.033 1394.5,714.5C 1398.75,717.302 1399.58,720.969 1397,725.5C 1396.1,726.701 1394.93,727.535 1393.5,728C 1387.51,728.499 1381.51,728.666 1375.5,728.5C 1375.5,719.5 1375.5,710.5 1375.5,701.5 Z"/></g>
<g><path style="opacity:1" fill="#f6f4ec" d="M 1401.5,701.5 C 1403.17,701.5 1404.83,701.5 1406.5,701.5C 1406.33,707.842 1406.5,714.175 1407,720.5C 1409.89,724.828 1413.72,725.661 1418.5,723C 1419.13,722.25 1419.63,721.416 1420,720.5C 1420.5,714.175 1420.67,707.842 1420.5,701.5C 1422.17,701.5 1423.83,701.5 1425.5,701.5C 1425.89,708.921 1425.39,716.254 1424,723.5C 1421.4,727.299 1417.73,728.966 1413,728.5C 1407.38,729.191 1403.71,726.858 1402,721.5C 1401.5,714.842 1401.33,708.175 1401.5,701.5 Z"/></g>
<g><path style="opacity:1" fill="#f4f6f5" d="M 1428.5,701.5 C 1435.83,701.5 1443.17,701.5 1450.5,701.5C 1450.5,702.833 1450.5,704.167 1450.5,705.5C 1447.5,705.5 1444.5,705.5 1441.5,705.5C 1441.5,713.167 1441.5,720.833 1441.5,728.5C 1439.83,728.5 1438.17,728.5 1436.5,728.5C 1436.5,720.833 1436.5,713.167 1436.5,705.5C 1433.83,705.5 1431.17,705.5 1428.5,705.5C 1428.5,704.167 1428.5,702.833 1428.5,701.5 Z"/></g>
<g><path style="opacity:1" fill="#f5f3ed" d="M 753.5,702.5 C 754.5,702.5 755.5,702.5 756.5,702.5C 756.5,704.5 756.5,706.5 756.5,708.5C 758.167,708.5 759.833,708.5 761.5,708.5C 761.5,709.833 761.5,711.167 761.5,712.5C 759.833,712.5 758.167,712.5 756.5,712.5C 756.335,716.182 756.501,719.848 757,723.5C 758.699,724.406 760.533,724.739 762.5,724.5C 762.5,725.833 762.5,727.167 762.5,728.5C 758.397,729.231 754.897,728.231 752,725.5C 751.501,721.179 751.334,716.846 751.5,712.5C 750.5,712.5 749.5,712.5 748.5,712.5C 748.5,711.167 748.5,709.833 748.5,708.5C 749.5,708.5 750.5,708.5 751.5,708.5C 751.259,706.114 751.925,704.114 753.5,702.5 Z"/></g>
<g><path style="opacity:1" fill="#544b4b" d="M 1380.5,705.5 C 1383.85,705.335 1387.18,705.502 1390.5,706C 1391.83,708 1391.83,710 1390.5,712C 1387.18,712.498 1383.85,712.665 1380.5,712.5C 1380.5,710.167 1380.5,707.833 1380.5,705.5 Z"/></g>
<g><path style="opacity:1" fill="#f5f5f4" d="M 451.5,708.5 C 461.551,706.563 466.218,710.563 465.5,720.5C 460.786,720.173 456.12,720.507 451.5,721.5C 451.977,722.478 452.643,723.311 453.5,724C 457.203,724.579 460.869,724.412 464.5,723.5C 464.275,727.8 461.941,729.466 457.5,728.5C 448.133,727.797 444.633,722.797 447,713.5C 448.193,711.503 449.693,709.836 451.5,708.5 Z"/></g>
<g><path style="opacity:1" fill="#f4f4f3" d="M 481.5,708.5 C 484.85,708.335 488.183,708.502 491.5,709C 492.38,710.356 492.714,711.856 492.5,713.5C 489.545,712.841 486.545,712.508 483.5,712.5C 483.281,713.675 483.614,714.675 484.5,715.5C 487.599,716.362 490.433,717.695 493,719.5C 494.983,726.52 492.317,729.52 485,728.5C 482.906,728.464 480.906,728.131 479,727.5C 478.219,726.056 478.386,724.723 479.5,723.5C 482.421,724.407 485.421,724.74 488.5,724.5C 488.67,723.178 488.337,722.011 487.5,721C 484.488,720.22 481.655,719.053 479,717.5C 477.779,713.718 478.613,710.718 481.5,708.5 Z"/></g>
<g><path style="opacity:1" fill="#efede3" d="M 497.5,708.5 C 499.5,708.5 501.5,708.5 503.5,708.5C 503.334,713.511 503.501,718.511 504,723.5C 506.833,724.87 509.5,724.536 512,722.5C 512.499,717.845 512.666,713.179 512.5,708.5C 514.167,708.5 515.833,708.5 517.5,708.5C 517.5,715.167 517.5,721.833 517.5,728.5C 515.234,728.859 513.401,728.192 512,726.5C 508.744,728.429 505.244,728.929 501.5,728C 499.951,726.786 498.785,725.286 498,723.5C 497.501,718.511 497.334,713.511 497.5,708.5 Z"/></g>
<g><path style="opacity:1" fill="#eaf5f6" d="M 521.5,708.5 C 523.833,708.5 526.167,708.5 528.5,708.5C 528.5,715.167 528.5,721.833 528.5,728.5C 526.833,728.5 525.167,728.5 523.5,728.5C 523.815,721.695 523.148,715.029 521.5,708.5 Z"/></g>
<g><path style="opacity:1" fill="#f3f3f0" d="M 535.5,708.5 C 539.5,708.5 543.5,708.5 547.5,708.5C 547.5,710.167 547.5,711.833 547.5,713.5C 544.545,712.841 541.545,712.508 538.5,712.5C 538.281,713.675 538.614,714.675 539.5,715.5C 542.53,716.432 545.363,717.765 548,719.5C 548.667,721.833 548.667,724.167 548,726.5C 547.25,727.126 546.416,727.626 545.5,728C 541.514,728.499 537.514,728.666 533.5,728.5C 533.34,726.801 533.506,725.134 534,723.5C 537.057,724.451 540.223,724.784 543.5,724.5C 543.719,723.325 543.386,722.325 542.5,721.5C 539.47,720.568 536.637,719.235 534,717.5C 533.068,714.177 533.568,711.177 535.5,708.5 Z"/></g>
<g><path style="opacity:1" fill="#f7f4eb" d="M 562.5,708.5 C 564.167,708.5 565.833,708.5 567.5,708.5C 567.334,713.511 567.501,718.511 568,723.5C 570.833,724.87 573.5,724.536 576,722.5C 576.499,717.845 576.666,713.179 576.5,708.5C 578.167,708.5 579.833,708.5 581.5,708.5C 581.5,715.167 581.5,721.833 581.5,728.5C 579.234,728.859 577.401,728.192 576,726.5C 571.335,729.456 567.002,729.122 563,725.5C 562.501,719.843 562.334,714.176 562.5,708.5 Z"/></g>
<g><path style="opacity:1" fill="#f8f5ec" d="M 586.5,708.5 C 588.451,708.227 589.951,708.893 591,710.5C 595.333,707.833 599.667,707.833 604,710.5C 605.41,716.379 605.91,722.379 605.5,728.5C 603.833,728.5 602.167,728.5 600.5,728.5C 600.666,723.821 600.499,719.155 600,714.5C 597.333,711.833 594.667,711.833 592,714.5C 591.501,719.155 591.334,723.821 591.5,728.5C 589.833,728.5 588.167,728.5 586.5,728.5C 586.5,721.833 586.5,715.167 586.5,708.5 Z"/></g>
<g><path style="opacity:1" fill="#f2f2f0" d="M 622.5,708.5 C 627.206,708.085 631.706,708.752 636,710.5C 637.41,716.379 637.91,722.379 637.5,728.5C 632.25,728.128 626.917,727.961 621.5,728C 617.5,724.333 617.5,720.667 621.5,717C 625.152,716.501 628.818,716.335 632.5,716.5C 632.64,714.876 631.973,713.71 630.5,713C 627.132,712.457 623.799,712.624 620.5,713.5C 620.365,711.446 621.032,709.779 622.5,708.5 Z"/></g>
<g><path style="opacity:1" fill="#f9f4ea" d="M 642.5,708.5 C 644.451,708.227 645.951,708.893 647,710.5C 660.107,706.272 664.773,710.939 661,724.5C 657.346,728.416 653.012,729.416 648,727.5C 647.502,730.482 647.335,733.482 647.5,736.5C 645.833,736.5 644.167,736.5 642.5,736.5C 642.5,727.167 642.5,717.833 642.5,708.5 Z"/></g>
<g><path style="opacity:1" fill="#f9f4ea" d="M 666.5,708.5 C 668.451,708.227 669.951,708.893 671,710.5C 684.107,706.272 688.773,710.939 685,724.5C 681.346,728.416 677.012,729.416 672,727.5C 671.502,730.482 671.335,733.482 671.5,736.5C 669.833,736.5 668.167,736.5 666.5,736.5C 666.5,727.167 666.5,717.833 666.5,708.5 Z"/></g>
<g><path style="opacity:1" fill="#f9f2e4" d="M 701.5,707.5 C 702.598,708.601 702.765,709.934 702,711.5C 700.215,712.24 698.382,712.907 696.5,713.5C 695.506,718.456 695.173,723.456 695.5,728.5C 693.833,728.5 692.167,728.5 690.5,728.5C 690.5,721.833 690.5,715.167 690.5,708.5C 692.451,708.227 693.951,708.893 695,710.5C 697.166,709.269 699.333,708.269 701.5,707.5 Z"/></g>
<g><path style="opacity:1" fill="#f4f4f1" d="M 708.5,708.5 C 718.5,706.508 723.166,710.508 722.5,720.5C 717.786,720.173 713.12,720.507 708.5,721.5C 708.977,722.478 709.643,723.311 710.5,724C 714.203,724.579 717.869,724.412 721.5,723.5C 721.275,727.8 718.941,729.466 714.5,728.5C 704.815,727.5 701.315,722.166 704,712.5C 705.397,710.93 706.897,709.596 708.5,708.5 Z"/></g>
<g><path style="opacity:1" fill="#f8f5ec" d="M 726.5,708.5 C 728.451,708.227 729.951,708.893 731,710.5C 735.333,707.833 739.667,707.833 744,710.5C 745.41,716.379 745.91,722.379 745.5,728.5C 743.833,728.5 742.167,728.5 740.5,728.5C 740.666,723.821 740.499,719.155 740,714.5C 737.333,711.833 734.667,711.833 732,714.5C 731.501,719.155 731.334,723.821 731.5,728.5C 729.833,728.5 728.167,728.5 726.5,728.5C 726.5,721.833 726.5,715.167 726.5,708.5 Z"/></g>
<g><path style="opacity:1" fill="#eaf5f6" d="M 764.5,708.5 C 766.833,708.5 769.167,708.5 771.5,708.5C 771.5,715.167 771.5,721.833 771.5,728.5C 769.833,728.5 768.167,728.5 766.5,728.5C 766.815,721.695 766.148,715.029 764.5,708.5 Z"/></g>
<g><path style="opacity:1" fill="#f7f6f3" d="M 813.5,708.5 C 823.469,706.622 828.469,710.622 828.5,720.5C 823.489,720.334 818.489,720.501 813.5,721C 816.836,724.59 820.836,725.423 825.5,723.5C 826.747,725.006 826.747,726.506 825.5,728C 812.333,730.833 807.167,725.667 810,712.5C 811.376,711.295 812.542,709.962 813.5,708.5 Z"/></g>
<g><path style="opacity:1" fill="#f2f0e9" d="M 829.5,708.5 C 831.288,708.215 832.955,708.548 834.5,709.5C 835.785,713.696 837.452,717.696 839.5,721.5C 841.641,717.41 842.975,713.076 843.5,708.5C 845.604,708.201 847.604,708.534 849.5,709.5C 847.149,715.509 844.815,721.509 842.5,727.5C 840.305,728.769 838.139,728.769 836,727.5C 833.668,721.15 831.502,714.816 829.5,708.5 Z"/></g>
<g><path style="opacity:1" fill="#f4f4f1" d="M 855.5,708.5 C 865.5,706.508 870.166,710.508 869.5,720.5C 864.786,720.173 860.12,720.507 855.5,721.5C 855.977,722.478 856.643,723.311 857.5,724C 861.203,724.579 864.869,724.412 868.5,723.5C 868.275,727.8 865.941,729.466 861.5,728.5C 851.815,727.5 848.315,722.166 851,712.5C 852.397,710.93 853.897,709.596 855.5,708.5 Z"/></g>
<g><path style="opacity:1" fill="#f5f5f1" d="M 889.5,708.5 C 904.669,707.495 908.669,713.662 901.5,727C 887.91,731.411 882.41,726.578 885,712.5C 886.397,710.93 887.897,709.596 889.5,708.5 Z"/></g>
<g><path style="opacity:1" fill="#f1f5f5" d="M 908.5,708.5 C 913.419,708.938 918.419,709.105 923.5,709C 925.492,709.574 926.992,710.741 928,712.5C 931.149,724.842 926.649,729.842 914.5,727.5C 913.516,730.428 913.183,733.428 913.5,736.5C 911.833,736.5 910.167,736.5 908.5,736.5C 908.5,727.167 908.5,717.833 908.5,708.5 Z"/></g>
<g><path style="opacity:1" fill="#f1f5f5" d="M 932.5,708.5 C 937.419,708.938 942.419,709.105 947.5,709C 949.492,709.574 950.992,710.741 952,712.5C 955.149,724.842 950.649,729.842 938.5,727.5C 937.516,730.428 937.183,733.428 937.5,736.5C 935.833,736.5 934.167,736.5 932.5,736.5C 932.5,727.167 932.5,717.833 932.5,708.5 Z"/></g>
<g><path style="opacity:1" fill="#f5f4f1" d="M 961.5,708.5 C 971.5,706.508 976.166,710.508 975.5,720.5C 970.786,720.173 966.12,720.507 961.5,721.5C 961.977,722.478 962.643,723.311 963.5,724C 966.562,724.741 969.562,724.575 972.5,723.5C 973.747,725.006 973.747,726.506 972.5,728C 959.333,730.833 954.167,725.667 957,712.5C 958.397,710.93 959.897,709.596 961.5,708.5 Z"/></g>
<g><path style="opacity:1" fill="#eff5f5" d="M 978.5,708.5 C 980.167,708.5 981.833,708.5 983.5,708.5C 983.334,713.179 983.501,717.845 984,722.5C 986.209,724.706 988.709,725.04 991.5,723.5C 992.494,718.544 992.827,713.544 992.5,708.5C 994.167,708.5 995.833,708.5 997.5,708.5C 997.5,715.167 997.5,721.833 997.5,728.5C 995.549,728.773 994.049,728.107 993,726.5C 987.676,729.67 983.01,729.003 979,724.5C 978.501,719.177 978.334,713.844 978.5,708.5 Z"/></g>
<g><path style="opacity:1" fill="#eff5f5" d="M 1013.5,707.5 C 1014.45,708.919 1014.78,710.585 1014.5,712.5C 1012.06,712.317 1009.9,712.984 1008,714.5C 1007.5,719.155 1007.33,723.821 1007.5,728.5C 1005.83,728.5 1004.17,728.5 1002.5,728.5C 1002.5,721.833 1002.5,715.167 1002.5,708.5C 1004.77,708.141 1006.6,708.808 1008,710.5C 1009.88,709.391 1011.71,708.391 1013.5,707.5 Z"/></g>
<g><path style="opacity:1" fill="#f5f4f1" d="M 1036.5,708.5 C 1046.5,706.508 1051.17,710.508 1050.5,720.5C 1045.79,720.173 1041.12,720.507 1036.5,721.5C 1036.98,722.478 1037.64,723.311 1038.5,724C 1041.56,724.741 1044.56,724.575 1047.5,723.5C 1048.75,725.006 1048.75,726.506 1047.5,728C 1034.33,730.833 1029.17,725.667 1032,712.5C 1033.4,710.93 1034.9,709.596 1036.5,708.5 Z"/></g>
<g><path style="opacity:1" fill="#f8f5ec" d="M 1054.5,708.5 C 1056.45,708.227 1057.95,708.893 1059,710.5C 1063.33,707.833 1067.67,707.833 1072,710.5C 1073.41,716.379 1073.91,722.379 1073.5,728.5C 1071.83,728.5 1070.17,728.5 1068.5,728.5C 1068.67,723.821 1068.5,719.155 1068,714.5C 1065.33,711.833 1062.67,711.833 1060,714.5C 1059.5,719.155 1059.33,723.821 1059.5,728.5C 1057.83,728.5 1056.17,728.5 1054.5,728.5C 1054.5,721.833 1054.5,715.167 1054.5,708.5 Z"/></g>
<g><path style="opacity:1" fill="#f5f5f4" d="M 1112.5,708.5 C 1122.55,706.563 1127.22,710.563 1126.5,720.5C 1121.79,720.173 1117.12,720.507 1112.5,721.5C 1112.98,722.478 1113.64,723.311 1114.5,724C 1118.2,724.579 1121.87,724.412 1125.5,723.5C 1125.27,727.8 1122.94,729.466 1118.5,728.5C 1109.13,727.797 1105.63,722.797 1108,713.5C 1109.19,711.503 1110.69,709.836 1112.5,708.5 Z"/></g>
<g><path style="opacity:1" fill="#f4f4f0" d="M 1130.5,708.5 C 1132.77,708.141 1134.6,708.808 1136,710.5C 1139.8,707.867 1143.63,707.867 1147.5,710.5C 1152.29,707.571 1156.79,707.904 1161,711.5C 1161.5,717.157 1161.67,722.824 1161.5,728.5C 1159.83,728.5 1158.17,728.5 1156.5,728.5C 1156.67,723.821 1156.5,719.155 1156,714.5C 1154.14,712.327 1151.97,711.993 1149.5,713.5C 1148.51,718.456 1148.17,723.456 1148.5,728.5C 1146.83,728.5 1145.17,728.5 1143.5,728.5C 1143.67,723.489 1143.5,718.489 1143,713.5C 1140.5,712.202 1138.17,712.536 1136,714.5C 1135.5,719.155 1135.33,723.821 1135.5,728.5C 1133.83,728.5 1132.17,728.5 1130.5,728.5C 1130.5,721.833 1130.5,715.167 1130.5,708.5 Z"/></g>
<g><path style="opacity:1" fill="#f5f5f4" d="M 1169.5,708.5 C 1179.55,706.563 1184.22,710.563 1183.5,720.5C 1178.79,720.173 1174.12,720.507 1169.5,721.5C 1169.98,722.478 1170.64,723.311 1171.5,724C 1175.2,724.579 1178.87,724.412 1182.5,723.5C 1182.27,727.8 1179.94,729.466 1175.5,728.5C 1166.13,727.797 1162.63,722.797 1165,713.5C 1166.19,711.503 1167.69,709.836 1169.5,708.5 Z"/></g>
<g><path style="opacity:1" fill="#f4f2ed" d="M 1199.5,708.5 C 1203.18,708.335 1206.85,708.501 1210.5,709C 1212,709.583 1213.33,710.416 1214.5,711.5C 1215.45,717.104 1215.79,722.771 1215.5,728.5C 1213.23,728.859 1211.4,728.192 1210,726.5C 1205.34,729.456 1201,729.122 1197,725.5C 1195.88,722.044 1196.71,719.21 1199.5,717C 1203.21,716.825 1206.88,716.325 1210.5,715.5C 1210.02,714.522 1209.36,713.689 1208.5,713C 1205.13,712.457 1201.8,712.624 1198.5,713.5C 1198.37,711.708 1198.7,710.042 1199.5,708.5 Z"/></g>
<g><path style="opacity:1" fill="#eff5f5" d="M 1219.5,708.5 C 1221.77,708.141 1223.6,708.808 1225,710.5C 1229.33,707.833 1233.67,707.833 1238,710.5C 1238.5,716.491 1238.67,722.491 1238.5,728.5C 1236.83,728.5 1235.17,728.5 1233.5,728.5C 1233.67,723.489 1233.5,718.489 1233,713.5C 1230.17,712.13 1227.5,712.464 1225,714.5C 1224.5,719.155 1224.33,723.821 1224.5,728.5C 1222.83,728.5 1221.17,728.5 1219.5,728.5C 1219.5,721.833 1219.5,715.167 1219.5,708.5 Z"/></g>
<g><path style="opacity:1" fill="#f6f6f1" d="M 1243.5,708.5 C 1248.75,708.872 1254.08,709.039 1259.5,709C 1260.33,709.833 1261.17,710.667 1262,711.5C 1262.5,717.157 1262.67,722.824 1262.5,728.5C 1260.83,728.5 1259.17,728.5 1257.5,728.5C 1257.67,723.489 1257.5,718.489 1257,713.5C 1254.08,711.987 1251.42,712.32 1249,714.5C 1248.5,719.155 1248.33,723.821 1248.5,728.5C 1246.83,728.5 1245.17,728.5 1243.5,728.5C 1243.5,721.833 1243.5,715.167 1243.5,708.5 Z"/></g>
<g><path style="opacity:1" fill="#f5f4f1" d="M 1271.5,708.5 C 1281.5,706.508 1286.17,710.508 1285.5,720.5C 1280.79,720.173 1276.12,720.507 1271.5,721.5C 1271.98,722.478 1272.64,723.311 1273.5,724C 1276.56,724.741 1279.56,724.575 1282.5,723.5C 1283.75,725.006 1283.75,726.506 1282.5,728C 1269.33,730.833 1264.17,725.667 1267,712.5C 1268.4,710.93 1269.9,709.596 1271.5,708.5 Z"/></g>
<g><path style="opacity:1" fill="#f4f4f1" d="M 1293.5,708.5 C 1303.5,706.508 1308.17,710.508 1307.5,720.5C 1302.79,720.173 1298.12,720.507 1293.5,721.5C 1293.98,722.478 1294.64,723.311 1295.5,724C 1299.2,724.579 1302.87,724.412 1306.5,723.5C 1306.27,727.8 1303.94,729.466 1299.5,728.5C 1289.81,727.5 1286.31,722.166 1289,712.5C 1290.4,710.93 1291.9,709.596 1293.5,708.5 Z"/></g>
<g><path style="opacity:1" fill="#f5f5f4" d="M 1348.5,708.5 C 1358.55,706.563 1363.22,710.563 1362.5,720.5C 1357.79,720.173 1353.12,720.507 1348.5,721.5C 1348.98,722.478 1349.64,723.311 1350.5,724C 1354.2,724.579 1357.87,724.412 1361.5,723.5C 1361.27,727.8 1358.94,729.466 1354.5,728.5C 1345.13,727.797 1341.63,722.797 1344,713.5C 1345.19,711.503 1346.69,709.836 1348.5,708.5 Z"/></g>
<g><path style="opacity:1" fill="#515155" d="M 453.5,712.5 C 458.175,711.339 460.841,713.006 461.5,717.5C 458.167,717.5 454.833,717.5 451.5,717.5C 451.392,715.486 452.058,713.82 453.5,712.5 Z"/></g>
<g><path style="opacity:1" fill="#4e5055" d="M 649.5,712.5 C 656.56,711.725 659.06,714.725 657,721.5C 654.525,724.524 651.525,725.19 648,723.5C 647.039,719.508 647.539,715.841 649.5,712.5 Z"/></g>
<g><path style="opacity:1" fill="#4e5055" d="M 673.5,712.5 C 680.56,711.725 683.06,714.725 681,721.5C 678.525,724.524 675.525,725.19 672,723.5C 671.039,719.508 671.539,715.841 673.5,712.5 Z"/></g>
<g><path style="opacity:1" fill="#504d4f" d="M 710.5,712.5 C 712.527,712.338 714.527,712.505 716.5,713C 717.38,714.356 717.714,715.856 717.5,717.5C 714.5,717.5 711.5,717.5 708.5,717.5C 708.365,715.446 709.032,713.779 710.5,712.5 Z"/></g>
<g><path style="opacity:1" fill="#4f4c53" d="M 793.5,712.5 C 798.502,711.491 800.835,713.491 800.5,718.5C 800.523,724 797.856,725.833 792.5,724C 789.766,719.855 790.099,716.021 793.5,712.5 Z"/></g>
<g><path style="opacity:1" fill="#564e51" d="M 815.5,712.5 C 820.175,711.339 822.841,713.006 823.5,717.5C 820.167,717.5 816.833,717.5 813.5,717.5C 813.392,715.486 814.058,713.82 815.5,712.5 Z"/></g>
<g><path style="opacity:1" fill="#504d4f" d="M 857.5,712.5 C 859.527,712.338 861.527,712.505 863.5,713C 864.38,714.356 864.714,715.856 864.5,717.5C 861.5,717.5 858.5,717.5 855.5,717.5C 855.365,715.446 856.032,713.779 857.5,712.5 Z"/></g>
<g><path style="opacity:1" fill="#4d4c4d" d="M 891.5,712.5 C 898.503,711.673 901.003,714.673 899,721.5C 896.472,725.085 893.472,725.418 890,722.5C 889.037,718.851 889.537,715.518 891.5,712.5 Z"/></g>
<g><path style="opacity:1" fill="#564c4d" d="M 915.5,712.5 C 922.503,711.673 925.003,714.673 923,721.5C 920.779,724.512 917.946,725.179 914.5,723.5C 913.012,719.57 913.346,715.904 915.5,712.5 Z"/></g>
<g><path style="opacity:1" fill="#564c4d" d="M 939.5,712.5 C 946.503,711.673 949.003,714.673 947,721.5C 944.779,724.512 941.946,725.179 938.5,723.5C 937.012,719.57 937.346,715.904 939.5,712.5 Z"/></g>
<g><path style="opacity:1" fill="#57504e" d="M 962.5,712.5 C 967.175,711.339 969.841,713.006 970.5,717.5C 967.167,717.5 963.833,717.5 960.5,717.5C 960.392,715.486 961.058,713.82 962.5,712.5 Z"/></g>
<g><path style="opacity:1" fill="#57504e" d="M 1037.5,712.5 C 1042.17,711.339 1044.84,713.006 1045.5,717.5C 1042.17,717.5 1038.83,717.5 1035.5,717.5C 1035.39,715.486 1036.06,713.82 1037.5,712.5 Z"/></g>
<g><path style="opacity:1" fill="#515155" d="M 1114.5,712.5 C 1119.17,711.339 1121.84,713.006 1122.5,717.5C 1119.17,717.5 1115.83,717.5 1112.5,717.5C 1112.39,715.486 1113.06,713.82 1114.5,712.5 Z"/></g>
<g><path style="opacity:1" fill="#515155" d="M 1171.5,712.5 C 1176.17,711.339 1178.84,713.006 1179.5,717.5C 1176.17,717.5 1172.83,717.5 1169.5,717.5C 1169.39,715.486 1170.06,713.82 1171.5,712.5 Z"/></g>
<g><path style="opacity:1" fill="#57504e" d="M 1272.5,712.5 C 1277.17,711.339 1279.84,713.006 1280.5,717.5C 1277.17,717.5 1273.83,717.5 1270.5,717.5C 1270.39,715.486 1271.06,713.82 1272.5,712.5 Z"/></g>
<g><path style="opacity:1" fill="#504d4f" d="M 1295.5,712.5 C 1297.53,712.338 1299.53,712.505 1301.5,713C 1302.38,714.356 1302.71,715.856 1302.5,717.5C 1299.5,717.5 1296.5,717.5 1293.5,717.5C 1293.37,715.446 1294.03,713.779 1295.5,712.5 Z"/></g>
<g><path style="opacity:1" fill="#4d4b4c" d="M 1327.5,712.5 C 1332.5,711.491 1334.84,713.491 1334.5,718.5C 1335.01,722.49 1333.34,724.49 1329.5,724.5C 1328.01,724.291 1326.84,723.624 1326,722.5C 1325.04,718.851 1325.54,715.518 1327.5,712.5 Z"/></g>
<g><path style="opacity:1" fill="#515155" d="M 1350.5,712.5 C 1355.17,711.339 1357.84,713.006 1358.5,717.5C 1355.17,717.5 1351.83,717.5 1348.5,717.5C 1348.39,715.486 1349.06,713.82 1350.5,712.5 Z"/></g>
<g><path style="opacity:1" fill="#544c4d" d="M 1380.5,716.5 C 1384.55,716.395 1388.55,716.728 1392.5,717.5C 1392.76,719.792 1392.42,721.959 1391.5,724C 1387.85,724.499 1384.18,724.665 1380.5,724.5C 1380.5,721.833 1380.5,719.167 1380.5,716.5 Z"/></g>
<g><path style="opacity:1" fill="#4d4a4c" d="M 624.5,719.5 C 627.167,719.5 629.833,719.5 632.5,719.5C 632.349,722.85 630.515,724.516 627,724.5C 623.597,724.126 622.764,722.46 624.5,719.5 Z"/></g>
<g><path style="opacity:1" fill="#4f4d53" d="M 1202.5,719.5 C 1205.17,719.5 1207.83,719.5 1210.5,719.5C 1210.67,720.822 1210.34,721.989 1209.5,723C 1206.99,724.252 1204.32,724.752 1201.5,724.5C 1201.37,722.708 1201.7,721.042 1202.5,719.5 Z"/></g>
<g><path style="opacity:1" fill="#f1efe6" d="M 1013.5,725.5 C 1015.17,725.5 1016.83,725.5 1018.5,725.5C 1018.16,727.854 1017.66,730.187 1017,732.5C 1015.99,733.337 1014.82,733.67 1013.5,733.5C 1013.5,730.833 1013.5,728.167 1013.5,725.5 Z"/></g>
<g><path style="opacity:1" fill="#ecebe4" d="M 935.5,761.5 C 936.946,760.387 938.613,760.22 940.5,761C 941.308,763.088 942.308,765.088 943.5,767C 941.741,767.798 940.074,767.631 938.5,766.5C 937.725,764.604 936.725,762.937 935.5,761.5 Z"/></g>
<g><path style="opacity:1" fill="#f4ede1" d="M 721.5,760.5 C 725.931,759.53 728.265,761.197 728.5,765.5C 726.5,765.5 724.5,765.5 722.5,765.5C 722.5,766.833 722.5,768.167 722.5,769.5C 724.167,769.5 725.833,769.5 727.5,769.5C 727.5,770.833 727.5,772.167 727.5,773.5C 725.833,773.5 724.167,773.5 722.5,773.5C 722.5,778.833 722.5,784.167 722.5,789.5C 720.833,789.5 719.167,789.5 717.5,789.5C 717.5,784.167 717.5,778.833 717.5,773.5C 716.5,773.5 715.5,773.5 714.5,773.5C 714.5,772.167 714.5,770.833 714.5,769.5C 715.5,769.5 716.5,769.5 717.5,769.5C 716.658,765.379 717.991,762.379 721.5,760.5 Z"/></g>
<g><path style="opacity:1" fill="#f5f2ed" d="M 841.5,761.5 C 843.5,761.5 845.5,761.5 847.5,761.5C 847.5,762.833 847.5,764.167 847.5,765.5C 845.5,765.5 843.5,765.5 841.5,765.5C 841.5,764.167 841.5,762.833 841.5,761.5 Z"/></g>
<g><path style="opacity:1" fill="#f3f6f3" d="M 963.5,761.5 C 965.167,761.5 966.833,761.5 968.5,761.5C 968.5,769.5 968.5,777.5 968.5,785.5C 969.833,785.5 971.167,785.5 972.5,785.5C 972.5,786.833 972.5,788.167 972.5,789.5C 969.315,789.98 966.481,789.314 964,787.5C 963.5,778.84 963.334,770.173 963.5,761.5 Z"/></g>
<g><path style="opacity:1" fill="#f7f3e8" d="M 1066.5,761.5 C 1068.17,761.5 1069.83,761.5 1071.5,761.5C 1071.5,770.833 1071.5,780.167 1071.5,789.5C 1069.23,789.859 1067.4,789.192 1066,787.5C 1062.82,789.523 1059.32,790.023 1055.5,789C 1054,788.167 1052.83,787 1052,785.5C 1048.79,773.214 1053.29,768.214 1065.5,770.5C 1066.48,767.572 1066.82,764.572 1066.5,761.5 Z"/></g>
<g><path style="opacity:1" fill="#f9f7ee" d="M 682.5,762.5 C 684.167,762.5 685.833,762.5 687.5,762.5C 687.5,771.5 687.5,780.5 687.5,789.5C 685.833,789.5 684.167,789.5 682.5,789.5C 682.5,780.5 682.5,771.5 682.5,762.5 Z"/></g>
<g><path style="opacity:1" fill="#f6f7f0" d="M 973.5,762.5 C 974.833,762.5 976.167,762.5 977.5,762.5C 977.5,765.167 977.5,767.833 977.5,770.5C 976.167,770.5 974.833,770.5 973.5,770.5C 973.5,767.833 973.5,765.167 973.5,762.5 Z"/></g>
<g><path style="opacity:1" fill="#f9f7ee" d="M 981.5,762.5 C 983.167,762.5 984.833,762.5 986.5,762.5C 986.5,771.5 986.5,780.5 986.5,789.5C 984.833,789.5 983.167,789.5 981.5,789.5C 981.5,780.5 981.5,771.5 981.5,762.5 Z"/></g>
<g><path style="opacity:1" fill="#efefe8" d="M 990.5,762.5 C 992.5,762.5 994.5,762.5 996.5,762.5C 996.334,769.175 996.5,775.842 997,782.5C 1001.4,786.654 1005.4,786.321 1009,781.5C 1009.5,775.175 1009.67,768.842 1009.5,762.5C 1011.17,762.5 1012.83,762.5 1014.5,762.5C 1014.67,769.508 1014.5,776.508 1014,783.5C 1011.58,788.039 1007.75,790.039 1002.5,789.5C 996.632,789.803 992.798,787.137 991,781.5C 990.5,775.175 990.334,768.842 990.5,762.5 Z"/></g>
<g><path style="opacity:1" fill="#f4f6f5" d="M 1017.5,762.5 C 1024.83,762.5 1032.17,762.5 1039.5,762.5C 1039.5,763.833 1039.5,765.167 1039.5,766.5C 1036.5,766.5 1033.5,766.5 1030.5,766.5C 1030.5,774.167 1030.5,781.833 1030.5,789.5C 1028.83,789.5 1027.17,789.5 1025.5,789.5C 1025.5,781.833 1025.5,774.167 1025.5,766.5C 1022.83,766.5 1020.17,766.5 1017.5,766.5C 1017.5,765.167 1017.5,763.833 1017.5,762.5 Z"/></g>
<g><path style="opacity:1" fill="#fcf6e9" d="M 1107.5,762.5 C 1109.17,762.5 1110.83,762.5 1112.5,762.5C 1112.5,770.167 1112.5,777.833 1112.5,785.5C 1116.83,785.5 1121.17,785.5 1125.5,785.5C 1125.5,786.833 1125.5,788.167 1125.5,789.5C 1119.5,789.5 1113.5,789.5 1107.5,789.5C 1107.5,780.5 1107.5,771.5 1107.5,762.5 Z"/></g>
<g><path style="opacity:1" fill="#f3f3f0" d="M 828.5,763.5 C 829.5,763.5 830.5,763.5 831.5,763.5C 831.5,765.5 831.5,767.5 831.5,769.5C 833.167,769.5 834.833,769.5 836.5,769.5C 836.5,770.833 836.5,772.167 836.5,773.5C 834.833,773.5 833.167,773.5 831.5,773.5C 831.335,777.182 831.501,780.848 832,784.5C 833.699,785.406 835.533,785.739 837.5,785.5C 837.5,786.833 837.5,788.167 837.5,789.5C 833.397,790.231 829.897,789.231 827,786.5C 826.501,782.179 826.334,777.846 826.5,773.5C 825.5,773.5 824.5,773.5 823.5,773.5C 823.5,772.167 823.5,770.833 823.5,769.5C 824.5,769.5 825.5,769.5 826.5,769.5C 826.259,767.114 826.925,765.114 828.5,763.5 Z"/></g>
<g><path style="opacity:1" fill="#f8f5ec" d="M 692.5,769.5 C 694.451,769.227 695.951,769.893 697,771.5C 701.333,768.833 705.667,768.833 710,771.5C 711.41,777.379 711.91,783.379 711.5,789.5C 709.833,789.5 708.167,789.5 706.5,789.5C 706.666,784.821 706.499,780.155 706,775.5C 703.333,772.833 700.667,772.833 698,775.5C 697.501,780.155 697.334,784.821 697.5,789.5C 695.833,789.5 694.167,789.5 692.5,789.5C 692.5,782.833 692.5,776.167 692.5,769.5 Z"/></g>
<g><path style="opacity:1" fill="#f3f4f2" d="M 733.5,769.5 C 745.246,767.251 750.412,771.917 749,783.5C 748.215,785.286 747.049,786.786 745.5,788C 733.123,791.959 727.623,787.459 729,774.5C 730.193,772.503 731.693,770.836 733.5,769.5 Z"/></g>
<g><path style="opacity:1" fill="#f6f3ea" d="M 764.5,768.5 C 765.451,769.919 765.784,771.585 765.5,773.5C 763.409,773.318 761.409,773.652 759.5,774.5C 758.506,779.456 758.173,784.456 758.5,789.5C 756.833,789.5 755.167,789.5 753.5,789.5C 753.5,782.833 753.5,776.167 753.5,769.5C 755.591,769.318 757.591,769.652 759.5,770.5C 761.336,769.972 763.003,769.306 764.5,768.5 Z"/></g>
<g><path style="opacity:1" fill="#f4f6f0" d="M 768.5,769.5 C 770.451,769.227 771.951,769.893 773,771.5C 777,768.833 781,768.833 785,771.5C 789.052,769.058 793.219,768.891 797.5,771C 798.476,777.076 798.81,783.242 798.5,789.5C 796.833,789.5 795.167,789.5 793.5,789.5C 793.666,784.489 793.499,779.489 793,774.5C 790.868,773.22 788.702,773.22 786.5,774.5C 785.506,779.456 785.173,784.456 785.5,789.5C 784.167,789.5 782.833,789.5 781.5,789.5C 781.666,784.821 781.499,780.155 781,775.5C 778.667,772.833 776.333,772.833 774,775.5C 773.501,780.155 773.334,784.821 773.5,789.5C 771.833,789.5 770.167,789.5 768.5,789.5C 768.5,782.833 768.5,776.167 768.5,769.5 Z"/></g>
<g><path style="opacity:1" fill="#f8faf8" d="M 805.5,769.5 C 809.182,769.335 812.848,769.501 816.5,770C 817.931,770.465 819.097,771.299 820,772.5C 820.499,778.157 820.666,783.824 820.5,789.5C 818.549,789.773 817.049,789.107 816,787.5C 811.8,790.133 807.633,790.133 803.5,787.5C 802.205,784.634 802.205,781.801 803.5,779C 807.759,777.958 812.093,777.125 816.5,776.5C 816.023,775.522 815.357,774.689 814.5,774C 811.24,773.216 808.073,773.383 805,774.5C 804.36,772.735 804.527,771.068 805.5,769.5 Z"/></g>
<g><path style="opacity:1" fill="#f8f3e3" d="M 839.5,769.5 C 842.167,769.5 844.833,769.5 847.5,769.5C 847.5,776.167 847.5,782.833 847.5,789.5C 845.833,789.5 844.167,789.5 842.5,789.5C 842.5,784.167 842.5,778.833 842.5,773.5C 841.5,773.5 840.5,773.5 839.5,773.5C 839.5,772.167 839.5,770.833 839.5,769.5 Z"/></g>
<g><path style="opacity:1" fill="#f7f3e9" d="M 855.5,769.5 C 858.518,769.335 861.518,769.502 864.5,770C 865,770.5 865.5,771 866,771.5C 867.401,769.808 869.234,769.141 871.5,769.5C 871.5,778.167 871.5,786.833 871.5,795.5C 872.833,795.5 874.167,795.5 875.5,795.5C 875.67,796.822 875.337,797.989 874.5,799C 871.653,799.944 869.153,799.444 867,797.5C 866.821,794.447 866.321,791.447 865.5,788.5C 853.35,790.841 848.85,785.841 852,773.5C 853.376,772.295 854.542,770.962 855.5,769.5 Z"/></g>
<g><path style="opacity:1" fill="#eff5f5" d="M 875.5,769.5 C 877.167,769.5 878.833,769.5 880.5,769.5C 880.334,774.179 880.501,778.845 881,783.5C 883.209,785.706 885.709,786.04 888.5,784.5C 889.494,779.544 889.827,774.544 889.5,769.5C 891.167,769.5 892.833,769.5 894.5,769.5C 894.5,776.167 894.5,782.833 894.5,789.5C 892.549,789.773 891.049,789.107 890,787.5C 884.676,790.67 880.01,790.003 876,785.5C 875.501,780.177 875.334,774.844 875.5,769.5 Z"/></g>
<g><path style="opacity:1" fill="#f5f4f1" d="M 904.5,769.5 C 914.5,767.508 919.166,771.508 918.5,781.5C 913.786,781.173 909.12,781.507 904.5,782.5C 904.977,783.478 905.643,784.311 906.5,785C 909.562,785.741 912.562,785.575 915.5,784.5C 916.747,786.006 916.747,787.506 915.5,789C 902.333,791.833 897.167,786.667 900,773.5C 901.397,771.93 902.897,770.596 904.5,769.5 Z"/></g>
<g><path style="opacity:1" fill="#f2f2f0" d="M 934.5,769.5 C 939.206,769.085 943.706,769.752 948,771.5C 949.41,777.379 949.91,783.379 949.5,789.5C 944.25,789.128 938.917,788.961 933.5,789C 929.5,785.333 929.5,781.667 933.5,778C 937.152,777.501 940.818,777.335 944.5,777.5C 944.64,775.876 943.973,774.71 942.5,774C 939.132,773.457 935.799,773.624 932.5,774.5C 932.365,772.446 933.032,770.779 934.5,769.5 Z"/></g>
<g><path style="opacity:1" fill="#f7f6f3" d="M 1079.5,769.5 C 1089.47,767.622 1094.47,771.622 1094.5,781.5C 1089.49,781.334 1084.49,781.501 1079.5,782C 1082.84,785.59 1086.84,786.423 1091.5,784.5C 1092.75,786.006 1092.75,787.506 1091.5,789C 1078.33,791.833 1073.17,786.667 1076,773.5C 1077.38,772.295 1078.54,770.962 1079.5,769.5 Z"/></g>
<g><path style="opacity:1" fill="#f5f4f1" d="M 1132.5,769.5 C 1142.5,767.508 1147.17,771.508 1146.5,781.5C 1141.79,781.173 1137.12,781.507 1132.5,782.5C 1132.98,783.478 1133.64,784.311 1134.5,785C 1137.56,785.741 1140.56,785.575 1143.5,784.5C 1144.75,786.006 1144.75,787.506 1143.5,789C 1130.33,791.833 1125.17,786.667 1128,773.5C 1129.4,771.93 1130.9,770.596 1132.5,769.5 Z"/></g>
<g><path style="opacity:1" fill="#f4f3ed" d="M 1149.5,769.5 C 1151.77,769.141 1153.6,769.808 1155,771.5C 1159.05,769.058 1163.22,768.891 1167.5,771C 1168.13,771.75 1168.63,772.584 1169,773.5C 1169.5,778.823 1169.67,784.156 1169.5,789.5C 1167.83,789.5 1166.17,789.5 1164.5,789.5C 1164.67,784.821 1164.5,780.155 1164,775.5C 1161.07,772.941 1158.07,772.941 1155,775.5C 1154.5,780.155 1154.33,784.821 1154.5,789.5C 1152.83,789.5 1151.17,789.5 1149.5,789.5C 1149.5,782.833 1149.5,776.167 1149.5,769.5 Z"/></g>
<g><path style="opacity:1" fill="#f4f4f3" d="M 1176.5,769.5 C 1179.85,769.335 1183.18,769.502 1186.5,770C 1187.38,771.356 1187.71,772.856 1187.5,774.5C 1184.54,773.841 1181.54,773.508 1178.5,773.5C 1178.28,774.675 1178.61,775.675 1179.5,776.5C 1182.6,777.362 1185.43,778.695 1188,780.5C 1189.98,787.52 1187.32,790.52 1180,789.5C 1177.91,789.464 1175.91,789.131 1174,788.5C 1173.22,787.056 1173.39,785.723 1174.5,784.5C 1177.42,785.407 1180.42,785.74 1183.5,785.5C 1183.67,784.178 1183.34,783.011 1182.5,782C 1179.49,781.22 1176.65,780.053 1174,778.5C 1172.78,774.718 1173.61,771.718 1176.5,769.5 Z"/></g>
<g><path style="opacity:1" fill="#554e51" d="M 735.5,773.5 C 743.871,773.264 746.205,776.931 742.5,784.5C 736.679,787.102 733.679,785.269 733.5,779C 733.395,776.822 734.061,774.988 735.5,773.5 Z"/></g>
<g><path style="opacity:1" fill="#505256" d="M 858.5,773.5 C 861.206,773.575 863.873,773.908 866.5,774.5C 866.82,777.898 866.487,781.232 865.5,784.5C 857.527,786.692 854.694,783.692 857,775.5C 857.717,774.956 858.217,774.289 858.5,773.5 Z"/></g>
<g><path style="opacity:1" fill="#57504e" d="M 905.5,773.5 C 910.175,772.339 912.841,774.006 913.5,778.5C 910.167,778.5 906.833,778.5 903.5,778.5C 903.392,776.486 904.058,774.82 905.5,773.5 Z"/></g>
<g><path style="opacity:1" fill="#505255" d="M 1058.5,773.5 C 1061.21,773.575 1063.87,773.908 1066.5,774.5C 1066.5,777.833 1066.5,781.167 1066.5,784.5C 1056.42,786.519 1053.76,782.852 1058.5,773.5 Z"/></g>
<g><path style="opacity:1" fill="#564e51" d="M 1081.5,773.5 C 1086.17,772.339 1088.84,774.006 1089.5,778.5C 1086.17,778.5 1082.83,778.5 1079.5,778.5C 1079.39,776.486 1080.06,774.82 1081.5,773.5 Z"/></g>
<g><path style="opacity:1" fill="#57504e" d="M 1133.5,773.5 C 1138.17,772.339 1140.84,774.006 1141.5,778.5C 1138.17,778.5 1134.83,778.5 1131.5,778.5C 1131.39,776.486 1132.06,774.82 1133.5,773.5 Z"/></g>
<g><path style="opacity:1" fill="#595556" d="M 807.5,780.5 C 810.5,780.5 813.5,780.5 816.5,780.5C 816.208,784.004 814.208,785.671 810.5,785.5C 806.712,785.456 805.712,783.79 807.5,780.5 Z"/></g>
<g><path style="opacity:1" fill="#4d4a4c" d="M 936.5,780.5 C 939.167,780.5 941.833,780.5 944.5,780.5C 944.349,783.85 942.515,785.516 939,785.5C 935.597,785.126 934.764,783.46 936.5,780.5 Z"/></g>
<g><path style="opacity:1" fill="#faf3e9" d="M 1192.5,785.5 C 1193.83,785.5 1195.17,785.5 1196.5,785.5C 1196.5,786.833 1196.5,788.167 1196.5,789.5C 1195.17,789.5 1193.83,789.5 1192.5,789.5C 1192.5,788.167 1192.5,786.833 1192.5,785.5 Z"/></g>
</svg>
