<?xml version="1.0" encoding="UTF-8"?>
<!DOCTYPE svg PUBLIC "-//W3C//DTD SVG 1.1//EN" "http://www.w3.org/Graphics/SVG/1.1/DTD/svg11.dtd">
<svg xmlns="http://www.w3.org/2000/svg" version="1.1" width="512px" height="512px" style="shape-rendering:geometricPrecision; text-rendering:geometricPrecision; image-rendering:optimizeQuality; fill-rule:evenodd; clip-rule:evenodd" xmlns:xlink="http://www.w3.org/1999/xlink">
<g><path style="opacity:0.996" fill="#020104" d="M 24.5,-0.5 C 178.5,-0.5 332.5,-0.5 486.5,-0.5C 499.167,3.5 507.5,11.8333 511.5,24.5C 511.5,178.5 511.5,332.5 511.5,486.5C 507.509,499.158 499.175,507.491 486.5,511.5C 332.5,511.5 178.5,511.5 24.5,511.5C 11.8247,507.491 3.49132,499.158 -0.5,486.5C -0.5,332.5 -0.5,178.5 -0.5,24.5C 3.5,11.8333 11.8333,3.5 24.5,-0.5 Z M 86.5,173.5 C 101.633,173.152 116.633,174.319 131.5,177C 155.709,183.579 168.376,199.412 169.5,224.5C 168.072,253.095 153.405,270.595 125.5,277C 113.235,279.558 100.901,280.058 88.5,278.5C 88.5,298.167 88.5,317.833 88.5,337.5C 76.5,337.5 64.5,337.5 52.5,337.5C 52.3333,284.166 52.5,230.832 53,177.5C 64.2034,175.598 75.3701,174.265 86.5,173.5 Z M 394.5,173.5 C 408.234,173.305 421.901,174.138 435.5,176C 467.825,184.007 481.325,204.507 476,237.5C 469.911,259.253 455.744,272.419 433.5,277C 421.235,279.558 408.901,280.058 396.5,278.5C 396.5,298.167 396.5,317.833 396.5,337.5C 384.833,337.5 373.167,337.5 361.5,337.5C 361.5,283.833 361.5,230.167 361.5,176.5C 372.652,175.55 383.652,174.55 394.5,173.5 Z M 193.5,174.5 C 205.833,174.5 218.167,174.5 230.5,174.5C 230.5,195.5 230.5,216.5 230.5,237.5C 250.833,237.5 271.167,237.5 291.5,237.5C 291.5,216.5 291.5,195.5 291.5,174.5C 303.5,174.5 315.5,174.5 327.5,174.5C 327.5,228.833 327.5,283.167 327.5,337.5C 315.5,337.5 303.5,337.5 291.5,337.5C 291.5,314.5 291.5,291.5 291.5,268.5C 271.167,268.5 250.833,268.5 230.5,268.5C 230.5,291.5 230.5,314.5 230.5,337.5C 218.167,337.5 205.833,337.5 193.5,337.5C 193.5,283.167 193.5,228.833 193.5,174.5 Z"/></g>
<g><path style="opacity:0.952" fill="#020003" d="M 95.5,200.5 C 106.653,199.04 116.986,201.207 126.5,207C 135.276,218.435 135.776,230.268 128,242.5C 119.95,249.728 110.45,253.061 99.5,252.5C 95.8201,252.221 92.1535,251.888 88.5,251.5C 88.3334,235.163 88.5001,218.83 89,202.5C 91.277,201.883 93.4437,201.216 95.5,200.5 Z"/></g>
<g><path style="opacity:0.951" fill="#020003" d="M 403.5,200.5 C 414.664,199.044 424.997,201.21 434.5,207C 441.045,214.312 443.212,222.812 441,232.5C 438.596,241.237 433.096,247.071 424.5,250C 415.265,252.522 405.931,253.022 396.5,251.5C 396.333,235.163 396.5,218.83 397,202.5C 399.277,201.883 401.444,201.216 403.5,200.5 Z"/></g>
</svg>
