<?xml version="1.0" encoding="UTF-8"?>
<!DOCTYPE svg PUBLIC "-//W3C//DTD SVG 1.1//EN" "http://www.w3.org/Graphics/SVG/1.1/DTD/svg11.dtd">
<svg xmlns="http://www.w3.org/2000/svg" version="1.1" width="512px" height="512px" style="shape-rendering:geometricPrecision; text-rendering:geometricPrecision; image-rendering:optimizeQuality; fill-rule:evenodd; clip-rule:evenodd" xmlns:xlink="http://www.w3.org/1999/xlink">
<g><path style="opacity:0.991" fill="#000000" d="M -0.5,-0.5 C 170.167,-0.5 340.833,-0.5 511.5,-0.5C 511.5,3.16667 511.5,6.83333 511.5,10.5C 497.032,163.311 483.032,316.311 469.5,469.5C 399.613,483.011 329.946,497.011 260.5,511.5C 257.167,511.5 253.833,511.5 250.5,511.5C 181.054,497.011 111.387,483.011 41.5,469.5C 27.9678,316.311 13.9678,163.311 -0.5,10.5C -0.5,6.83333 -0.5,3.16667 -0.5,-0.5 Z M 191.5,85.5 C 205.5,85.5 219.5,85.5 233.5,85.5C 233.833,196.835 233.5,308.169 232.5,419.5C 195.552,411.91 158.552,404.577 121.5,397.5C 119.706,371.766 117.373,346.099 114.5,320.5C 128.484,319.501 142.484,319.167 156.5,319.5C 157.563,333.927 159.229,348.261 161.5,362.5C 171.424,364.885 181.424,366.885 191.5,368.5C 191.5,274.167 191.5,179.833 191.5,85.5 Z M 277.5,85.5 C 324.167,85.5 370.833,85.5 417.5,85.5C 416.227,99.5082 414.893,113.508 413.5,127.5C 382.167,127.5 350.833,127.5 319.5,127.5C 319.5,163.167 319.5,198.833 319.5,234.5C 347.5,234.5 375.5,234.5 403.5,234.5C 398.833,288.833 394.167,343.167 389.5,397.5C 352.448,404.577 315.448,411.91 278.5,419.5C 277.178,405.27 277.178,391.104 278.5,377C 302.218,372.356 325.885,367.523 349.5,362.5C 352.979,333.895 355.979,305.228 358.5,276.5C 331.5,276.5 304.5,276.5 277.5,276.5C 277.5,212.833 277.5,149.167 277.5,85.5 Z"/></g>
</svg>
